<svg xmlns="http://www.w3.org/2000/svg" xmlns:xlink="http://www.w3.org/1999/xlink" width="272" height="272" viewBox="0 0 272 272"><defs><style>.a{fill:#e0a000;}.a,.d{opacity:0.9;isolation:isolate;}.b{fill:#fff;}.c{fill:#d4d4d4;}.d{fill:#f0ba10;}.e{fill:url(#a);}</style><linearGradient id="a" x1="43" y1="151" x2="61" y2="151" gradientTransform="matrix(1, 0, 0, -1, 0, 272)" gradientUnits="userSpaceOnUse"><stop offset="0" stop-color="#f0ba10" stop-opacity="0"/><stop offset="1" stop-color="#f0ba10"/></linearGradient></defs><title>Artboard 1</title><path class="a" d="M223,55V19H46c-10,0-15.06,6.21-15,15V226a27.33,27.33,0,0,0,2,9.65C38.46,248.89,50.77,253,64,253H241V55Z"/><polygon class="b" points="223 44.94 223 223.05 222.22 223.05 229.95 241.7 229.95 61.7 223 44.94"/><path class="c" d="M222.22,223H46c-2,0-1.46,4.53-1,6.65,1.36,6.62,8.55,12,15.17,12H230Z"/><rect class="d" x="61" y="22" width="159" height="198"/><rect class="e" x="43" y="22" width="18" height="198"/></svg>