<?xml version="1.0" encoding="utf-8"?>
<!-- Generator: Adobe Illustrator 19.2.1, SVG Export Plug-In . SVG Version: 6.00 Build 0)  -->
<svg version="1.1" id="Layer_1" xmlns="http://www.w3.org/2000/svg" xmlns:xlink="http://www.w3.org/1999/xlink" x="0px" y="0px"
	 width="400px" height="240px" viewBox="0 0 400 240" enable-background="new 0 0 400 240" xml:space="preserve">
<rect x="0" fill="#181818" width="400" height="240"/>
<path fill="#555555" d="M385,32H15c-2.761,0-5-2.239-5-5V0h380v27C390,29.761,387.761,32,385,32z"/>
<path fill="#555555" d="M385,208H15c-2.761,0-5,2.239-5,5v27h380v-27C390,210.239,387.761,208,385,208z"/>
<rect x="50" y="38" fill="#EEEEEE" width="300" height="162"/>
<g>
	<rect x="55" y="43" fill="#808080" width="290" height="152"/>
	<path fill="#666666" d="M345,195H55v-78.859c0,0,27.913,25.99,57.804,25.99s73.37-50.356,139.131-50.356S345,116.141,345,116.141
		V195z"/>
</g>
<rect x="20" y="3" fill="#AAAAAA" width="30" height="26"/>
<rect x="52" y="3" fill="#AAAAAA" width="30" height="26"/>
<rect x="84" y="3" fill="#AAAAAA" width="30" height="26"/>
<rect x="116" y="3" fill="#AAAAAA" width="30" height="26"/>
<rect x="148" y="3" fill="#AAAAAA" width="30" height="26"/>
<rect x="180" y="3" fill="#AAAAAA" width="30" height="26"/>
<rect x="212" y="3" fill="#AAAAAA" width="30" height="26"/>
<rect x="244" y="3" fill="#AAAAAA" width="30" height="26"/>
<rect x="276" y="3" fill="#AAAAAA" width="30" height="26"/>
<rect x="308" y="3" fill="#AAAAAA" width="30" height="26"/>
<rect x="340" y="3" fill="#AAAAAA" width="30" height="26"/>
<rect x="372" y="3" fill="#AAAAAA" width="8" height="26"/>
<path fill-rule="evenodd" clip-rule="evenodd" fill="#AAAAAA" d="M14.445,15.5L17,12.944L16.056,12l-3.499,3.5l3.499,3.5L17,18.055
	L14.445,15.5z"/>
<path fill-rule="evenodd" clip-rule="evenodd" fill="#AAAAAA" d="M383,18.055L383.944,19l3.499-3.5l-3.499-3.5L383,12.944
	l2.555,2.556L383,18.055z"/>
<g>
	<path fill="#E6E6E6" d="M18.037,228v-7.853h1.284V228H18.037z"/>
	<path fill="#E6E6E6" d="M26.265,228h-1.268v-3.663c0-0.455-0.086-0.794-0.258-1.018c-0.172-0.225-0.44-0.336-0.806-0.336
		c-0.487,0-0.844,0.158-1.071,0.476c-0.228,0.316-0.341,0.844-0.341,1.581V228h-1.262v-5.94h0.988l0.177,0.778h0.064
		c0.165-0.282,0.404-0.501,0.717-0.655c0.313-0.153,0.658-0.23,1.034-0.23c0.913,0,1.518,0.312,1.815,0.935h0.086
		c0.175-0.294,0.422-0.523,0.741-0.688c0.319-0.165,0.684-0.247,1.096-0.247c0.709,0,1.226,0.179,1.549,0.537
		c0.324,0.357,0.486,0.904,0.486,1.638V228h-1.262v-3.663c0-0.455-0.087-0.794-0.26-1.018c-0.174-0.225-0.443-0.336-0.809-0.336
		c-0.491,0-0.85,0.153-1.077,0.459c-0.227,0.307-0.341,0.776-0.341,1.41V228z"/>
	<path fill="#E6E6E6" d="M35.493,228l-0.252-0.827h-0.043c-0.287,0.361-0.575,0.607-0.865,0.738s-0.663,0.196-1.117,0.196
		c-0.583,0-1.039-0.158-1.367-0.473c-0.327-0.315-0.491-0.761-0.491-1.338c0-0.612,0.228-1.074,0.682-1.386s1.147-0.481,2.079-0.51
		l1.026-0.032v-0.317c0-0.379-0.088-0.663-0.266-0.851c-0.177-0.188-0.452-0.282-0.824-0.282c-0.304,0-0.596,0.045-0.875,0.134
		c-0.279,0.09-0.548,0.195-0.806,0.317l-0.408-0.902c0.322-0.169,0.675-0.297,1.058-0.384c0.383-0.088,0.745-0.132,1.085-0.132
		c0.755,0,1.326,0.164,1.711,0.494c0.385,0.329,0.577,0.847,0.577,1.552V228H35.493z M33.613,227.141
		c0.458,0,0.826-0.128,1.104-0.384c0.278-0.257,0.417-0.615,0.417-1.077v-0.516l-0.763,0.032c-0.594,0.021-1.027,0.121-1.297,0.298
		c-0.27,0.178-0.405,0.448-0.405,0.813c0,0.266,0.079,0.471,0.236,0.615C33.062,227.068,33.298,227.141,33.613,227.141z"/>
	<path fill="#E6E6E6" d="M43.173,222.06v0.692l-1.015,0.188c0.093,0.125,0.17,0.279,0.231,0.462s0.091,0.376,0.091,0.58
		c0,0.612-0.211,1.094-0.634,1.444c-0.422,0.352-1.004,0.526-1.746,0.526c-0.19,0-0.362-0.014-0.516-0.043
		c-0.272,0.169-0.408,0.365-0.408,0.591c0,0.137,0.063,0.238,0.19,0.307c0.127,0.067,0.361,0.102,0.701,0.102h1.037
		c0.655,0,1.153,0.14,1.493,0.419s0.51,0.683,0.51,1.209c0,0.673-0.277,1.192-0.833,1.558s-1.357,0.548-2.406,0.548
		c-0.809,0-1.427-0.144-1.853-0.43c-0.426-0.287-0.639-0.695-0.639-1.225c0-0.365,0.116-0.673,0.346-0.921
		c0.231-0.249,0.554-0.422,0.97-0.519c-0.168-0.072-0.307-0.188-0.416-0.347c-0.109-0.159-0.164-0.327-0.164-0.502
		c0-0.223,0.063-0.41,0.188-0.564c0.125-0.153,0.312-0.306,0.559-0.456c-0.308-0.133-0.558-0.349-0.75-0.647
		c-0.191-0.299-0.287-0.649-0.287-1.05c0-0.645,0.203-1.145,0.609-1.499c0.407-0.354,0.986-0.531,1.738-0.531
		c0.168,0,0.345,0.012,0.529,0.035c0.185,0.022,0.323,0.047,0.417,0.072H43.173z M38.506,228.924c0,0.271,0.123,0.481,0.368,0.628
		c0.246,0.147,0.59,0.221,1.034,0.221c0.688,0,1.2-0.099,1.536-0.296c0.336-0.196,0.505-0.458,0.505-0.784
		c0-0.258-0.092-0.441-0.276-0.55c-0.185-0.109-0.527-0.164-1.029-0.164h-0.956c-0.362,0-0.649,0.085-0.862,0.255
		C38.612,228.403,38.506,228.634,38.506,228.924z M39.048,223.982c0,0.372,0.096,0.658,0.287,0.859
		c0.192,0.2,0.467,0.301,0.825,0.301c0.73,0,1.096-0.391,1.096-1.171c0-0.387-0.09-0.685-0.271-0.895
		c-0.181-0.209-0.456-0.314-0.825-0.314c-0.365,0-0.642,0.104-0.83,0.312C39.142,223.282,39.048,223.585,39.048,223.982z"/>
	<path fill="#E6E6E6" d="M46.869,228.107c-0.924,0-1.646-0.27-2.167-0.809c-0.521-0.539-0.781-1.281-0.781-2.227
		c0-0.97,0.242-1.732,0.725-2.288c0.483-0.555,1.147-0.832,1.993-0.832c0.784,0,1.404,0.238,1.858,0.714
		c0.455,0.477,0.682,1.132,0.682,1.966v0.683H45.22c0.018,0.576,0.174,1.02,0.467,1.329s0.707,0.465,1.241,0.465
		c0.351,0,0.678-0.033,0.98-0.1c0.302-0.066,0.627-0.177,0.975-0.33v1.025c-0.308,0.147-0.62,0.251-0.935,0.312
		C47.633,228.077,47.273,228.107,46.869,228.107z M46.638,222.908c-0.401,0-0.723,0.127-0.964,0.381
		c-0.242,0.255-0.386,0.625-0.433,1.112h2.696c-0.007-0.491-0.125-0.862-0.354-1.114C47.354,223.034,47.039,222.908,46.638,222.908z
		"/>
	<path fill="#E6E6E6" d="M55.865,228.107c-0.899,0-1.582-0.263-2.049-0.787c-0.468-0.524-0.701-1.277-0.701-2.259
		c0-0.999,0.244-1.767,0.733-2.304c0.488-0.537,1.195-0.806,2.119-0.806c0.626,0,1.19,0.116,1.691,0.349l-0.381,1.016
		c-0.533-0.208-0.974-0.312-1.321-0.312c-1.028,0-1.542,0.682-1.542,2.046c0,0.666,0.128,1.167,0.384,1.502
		c0.256,0.334,0.631,0.502,1.125,0.502c0.562,0,1.094-0.14,1.596-0.419v1.101c-0.227,0.133-0.467,0.228-0.723,0.285
		C56.541,228.078,56.23,228.107,55.865,228.107z"/>
	<path fill="#E6E6E6" d="M62.633,228l-0.252-0.827h-0.043c-0.287,0.361-0.575,0.607-0.865,0.738s-0.662,0.196-1.117,0.196
		c-0.584,0-1.039-0.158-1.367-0.473c-0.327-0.315-0.491-0.761-0.491-1.338c0-0.612,0.228-1.074,0.683-1.386
		c0.454-0.312,1.147-0.481,2.078-0.51l1.025-0.032v-0.317c0-0.379-0.088-0.663-0.266-0.851c-0.177-0.188-0.452-0.282-0.824-0.282
		c-0.305,0-0.596,0.045-0.875,0.134c-0.279,0.09-0.549,0.195-0.807,0.317l-0.408-0.902c0.322-0.169,0.676-0.297,1.059-0.384
		c0.383-0.088,0.745-0.132,1.085-0.132c0.756,0,1.326,0.164,1.711,0.494c0.385,0.329,0.577,0.847,0.577,1.552V228H62.633z
		 M60.753,227.141c0.458,0,0.826-0.128,1.104-0.384c0.277-0.257,0.417-0.615,0.417-1.077v-0.516l-0.764,0.032
		c-0.594,0.021-1.026,0.121-1.297,0.298c-0.271,0.178-0.405,0.448-0.405,0.813c0,0.266,0.079,0.471,0.236,0.615
		C60.202,227.068,60.438,227.141,60.753,227.141z"/>
	<path fill="#E6E6E6" d="M68.311,228.107c-0.752,0-1.336-0.271-1.752-0.812h-0.074c0.05,0.502,0.074,0.806,0.074,0.913v2.434h-1.262
		v-8.583h1.021c0.028,0.11,0.088,0.376,0.177,0.795h0.064c0.395-0.602,0.985-0.902,1.773-0.902c0.74,0,1.318,0.269,1.731,0.806
		c0.414,0.537,0.62,1.291,0.62,2.261c0,0.971-0.21,1.728-0.631,2.272C69.632,227.835,69.051,228.107,68.311,228.107z
		 M68.004,222.983c-0.501,0-0.867,0.146-1.099,0.44c-0.23,0.293-0.347,0.763-0.347,1.407v0.188c0,0.724,0.115,1.247,0.344,1.571
		c0.229,0.324,0.604,0.486,1.123,0.486c0.437,0,0.773-0.18,1.01-0.537c0.236-0.358,0.354-0.868,0.354-1.531
		c0-0.666-0.117-1.17-0.352-1.512S68.459,222.983,68.004,222.983z"/>
	<path fill="#E6E6E6" d="M74.364,227.087c0.308,0,0.616-0.049,0.924-0.146v0.951c-0.14,0.061-0.319,0.111-0.54,0.153
		c-0.22,0.041-0.448,0.062-0.685,0.062c-1.196,0-1.794-0.631-1.794-1.891v-3.201h-0.812v-0.559l0.871-0.462l0.43-1.257h0.778v1.321
		h1.692v0.956h-1.692v3.18c0,0.304,0.076,0.529,0.229,0.674C73.917,227.015,74.117,227.087,74.364,227.087z"/>
	<path fill="#E6E6E6" d="M76.399,220.485c0-0.226,0.062-0.399,0.186-0.521c0.123-0.122,0.3-0.183,0.528-0.183
		c0.223,0,0.396,0.061,0.519,0.183c0.124,0.121,0.186,0.295,0.186,0.521c0,0.215-0.062,0.385-0.186,0.508
		c-0.123,0.124-0.296,0.186-0.519,0.186c-0.229,0-0.405-0.062-0.528-0.186C76.46,220.87,76.399,220.7,76.399,220.485z M77.736,228
		h-1.262v-5.94h1.262V228z"/>
	<path fill="#E6E6E6" d="M84.811,225.019c0,0.971-0.249,1.728-0.747,2.272c-0.498,0.544-1.19,0.816-2.079,0.816
		c-0.555,0-1.045-0.126-1.471-0.376c-0.427-0.251-0.754-0.61-0.983-1.08c-0.229-0.469-0.344-1.013-0.344-1.633
		c0-0.963,0.247-1.715,0.741-2.256c0.494-0.54,1.19-0.811,2.09-0.811c0.859,0,1.539,0.276,2.041,0.83
		C84.56,223.335,84.811,224.081,84.811,225.019z M80.487,225.019c0,1.372,0.507,2.058,1.52,2.058c1.003,0,1.504-0.686,1.504-2.058
		c0-1.356-0.504-2.035-1.514-2.035c-0.53,0-0.914,0.175-1.152,0.526C80.606,223.86,80.487,224.363,80.487,225.019z"/>
	<path fill="#E6E6E6" d="M91.487,228h-1.268v-3.652c0-0.459-0.093-0.801-0.277-1.026s-0.477-0.338-0.878-0.338
		c-0.533,0-0.924,0.157-1.171,0.473c-0.247,0.314-0.371,0.843-0.371,1.584V228H86.26v-5.94h0.988l0.178,0.778h0.064
		c0.179-0.282,0.433-0.501,0.762-0.655c0.33-0.153,0.695-0.23,1.096-0.23c1.426,0,2.139,0.725,2.139,2.175V228z"/>
</g>
<g>
	<circle fill-rule="evenodd" clip-rule="evenodd" fill="#E00000" cx="114" cy="82" r="9"/>
	<g>
		<path fill="#FEFEFE" d="M115.57,86.503h-1.811v-4.957l0.018-0.814l0.029-0.891c-0.301,0.301-0.51,0.498-0.627,0.592l-0.984,0.791
			l-0.873-1.09l2.76-2.197h1.488V86.503z"/>
	</g>
</g>
<g>
	<circle fill-rule="evenodd" clip-rule="evenodd" fill="#E00000" cx="139" cy="82" r="9"/>
	<g>
		<path fill="#FEFEFE" d="M142.082,86.503h-5.988v-1.26l2.15-2.174c0.637-0.652,1.053-1.104,1.248-1.356s0.336-0.485,0.422-0.7
			s0.129-0.438,0.129-0.668c0-0.344-0.095-0.6-0.284-0.768s-0.442-0.252-0.759-0.252c-0.332,0-0.654,0.076-0.967,0.229
			s-0.639,0.369-0.979,0.65l-0.984-1.166c0.422-0.359,0.771-0.613,1.049-0.762s0.58-0.263,0.908-0.343s0.695-0.12,1.102-0.12
			c0.535,0,1.008,0.098,1.418,0.293s0.729,0.469,0.955,0.82s0.34,0.754,0.34,1.207c0,0.395-0.069,0.765-0.208,1.11
			s-0.354,0.7-0.645,1.063s-0.804,0.881-1.538,1.553l-1.102,1.037v0.082h3.732V86.503z"/>
	</g>
</g>
<g>
	<circle fill-rule="evenodd" clip-rule="evenodd" fill="#E00000" cx="169" cy="82" r="9"/>
	<g>
		<path fill="#FEFEFE" d="M171.748,79.853c0,0.535-0.162,0.99-0.486,1.365s-0.779,0.633-1.365,0.773v0.035
			c0.691,0.086,1.215,0.296,1.57,0.63S172,83.44,172,84.007c0,0.824-0.299,1.466-0.896,1.925s-1.451,0.688-2.561,0.688
			c-0.93,0-1.754-0.154-2.473-0.463v-1.541c0.332,0.168,0.697,0.305,1.096,0.41s0.793,0.158,1.184,0.158
			c0.598,0,1.039-0.102,1.324-0.305s0.428-0.529,0.428-0.979c0-0.402-0.164-0.688-0.492-0.855s-0.852-0.252-1.57-0.252h-0.65v-1.389
			h0.662c0.664,0,1.149-0.087,1.456-0.261s0.46-0.472,0.46-0.894c0-0.648-0.406-0.973-1.219-0.973c-0.281,0-0.567,0.047-0.858,0.141
			s-0.614,0.256-0.97,0.486l-0.838-1.248c0.781-0.563,1.713-0.844,2.795-0.844c0.887,0,1.587,0.18,2.101,0.539
			S171.748,79.212,171.748,79.853z"/>
	</g>
</g>
<g>
	<circle fill-rule="evenodd" clip-rule="evenodd" fill="#E00000" cx="200" cy="82" r="9"/>
	<g>
		<path fill="#FEFEFE" d="M203.275,84.728h-1.031v1.775h-1.77v-1.775h-3.656v-1.26l3.756-5.531h1.67v5.385h1.031V84.728z
			 M200.474,83.321v-1.453c0-0.242,0.01-0.594,0.029-1.055s0.035-0.729,0.047-0.803h-0.047c-0.145,0.32-0.318,0.633-0.521,0.938
			l-1.57,2.373H200.474z"/>
	</g>
</g>
<g>
	<circle fill-rule="evenodd" clip-rule="evenodd" fill="#E00000" cx="230" cy="82" r="9"/>
	<g>
		<path fill="#FEFEFE" d="M230.211,81.03c0.828,0,1.487,0.232,1.978,0.697s0.735,1.102,0.735,1.91c0,0.957-0.295,1.693-0.885,2.209
			s-1.434,0.773-2.531,0.773c-0.953,0-1.723-0.154-2.309-0.463v-1.564c0.309,0.164,0.668,0.298,1.078,0.401s0.799,0.155,1.166,0.155
			c1.105,0,1.658-0.453,1.658-1.359c0-0.863-0.572-1.295-1.717-1.295c-0.207,0-0.436,0.021-0.686,0.062s-0.453,0.085-0.609,0.132
			l-0.721-0.387l0.322-4.365h4.646v1.535h-3.059l-0.158,1.682l0.205-0.041C229.564,81.058,229.859,81.03,230.211,81.03z"/>
	</g>
</g>
<g>
	<circle fill-rule="evenodd" clip-rule="evenodd" fill="#E00000" cx="260" cy="82" r="9"/>
	<g>
		<path fill="#FEFEFE" d="M257.035,82.864c0-1.695,0.358-2.957,1.075-3.785s1.79-1.242,3.22-1.242c0.488,0,0.871,0.029,1.148,0.088
			v1.447c-0.348-0.078-0.691-0.117-1.031-0.117c-0.621,0-1.128,0.094-1.521,0.281s-0.687,0.465-0.882,0.832
			s-0.311,0.889-0.346,1.564h0.076c0.387-0.664,1.006-0.996,1.857-0.996c0.766,0,1.365,0.24,1.799,0.721s0.65,1.145,0.65,1.992
			c0,0.914-0.258,1.638-0.773,2.171s-1.23,0.8-2.145,0.8c-0.633,0-1.185-0.146-1.655-0.439s-0.834-0.721-1.09-1.283
			S257.035,83.657,257.035,82.864z M260.129,85.173c0.387,0,0.684-0.13,0.891-0.39s0.311-0.63,0.311-1.11
			c0-0.418-0.097-0.747-0.29-0.987s-0.485-0.36-0.876-0.36c-0.367,0-0.681,0.119-0.94,0.357s-0.39,0.516-0.39,0.832
			c0,0.465,0.122,0.857,0.366,1.178S259.754,85.173,260.129,85.173z"/>
	</g>
</g>
<g>
	<circle fill-rule="evenodd" clip-rule="evenodd" fill="#E00000" cx="286" cy="82" r="9"/>
	<g>
		<path fill="#FEFEFE" d="M283.943,86.503l3.217-7.031h-4.225v-1.523h6.146v1.137l-3.24,7.418H283.943z"/>
	</g>
</g>
<g>
	<circle fill-rule="evenodd" clip-rule="evenodd" fill="#E00000" cx="374" cy="200" r="9"/>
	<g>
		<path fill="#FEFEFE" d="M372.445,204.503h-1.811v-4.957l0.018-0.814l0.029-0.891c-0.301,0.301-0.51,0.498-0.627,0.592
			l-0.984,0.791l-0.873-1.09l2.76-2.197h1.488V204.503z"/>
		<path fill="#FEFEFE" d="M379.872,197.853c0,0.535-0.162,0.99-0.486,1.365s-0.779,0.633-1.365,0.773v0.035
			c0.691,0.086,1.215,0.296,1.57,0.63s0.533,0.784,0.533,1.351c0,0.824-0.299,1.466-0.896,1.925s-1.451,0.688-2.561,0.688
			c-0.93,0-1.754-0.154-2.473-0.463v-1.541c0.332,0.168,0.697,0.305,1.096,0.41s0.793,0.158,1.184,0.158
			c0.598,0,1.039-0.102,1.324-0.305s0.428-0.529,0.428-0.979c0-0.402-0.164-0.688-0.492-0.855s-0.852-0.252-1.57-0.252h-0.65v-1.389
			h0.662c0.664,0,1.149-0.087,1.456-0.261s0.46-0.472,0.46-0.894c0-0.648-0.406-0.973-1.219-0.973c-0.281,0-0.567,0.047-0.858,0.141
			s-0.614,0.256-0.97,0.486l-0.838-1.248c0.781-0.563,1.713-0.844,2.795-0.844c0.887,0,1.587,0.18,2.101,0.539
			S379.872,197.212,379.872,197.853z"/>
	</g>
</g>
<g>
	<circle fill-rule="evenodd" clip-rule="evenodd" fill="#E00000" cx="350" cy="200" r="9"/>
	<g>
		<path fill="#FEFEFE" d="M348.445,204.503h-1.811v-4.957l0.018-0.814l0.029-0.891c-0.301,0.301-0.51,0.498-0.627,0.592
			l-0.984,0.791l-0.873-1.09l2.76-2.197h1.488V204.503z"/>
		<path fill="#FEFEFE" d="M356.206,204.503h-5.988v-1.26l2.15-2.174c0.637-0.652,1.053-1.104,1.248-1.356s0.336-0.485,0.422-0.7
			s0.129-0.438,0.129-0.668c0-0.344-0.095-0.6-0.284-0.768s-0.442-0.252-0.759-0.252c-0.332,0-0.654,0.076-0.967,0.229
			s-0.639,0.369-0.979,0.65l-0.984-1.166c0.422-0.359,0.771-0.613,1.049-0.762s0.58-0.263,0.908-0.343s0.695-0.12,1.102-0.12
			c0.535,0,1.008,0.098,1.418,0.293s0.729,0.469,0.955,0.82s0.34,0.754,0.34,1.207c0,0.395-0.069,0.765-0.208,1.11
			s-0.354,0.7-0.645,1.063s-0.804,0.881-1.538,1.553l-1.102,1.037v0.082h3.732V204.503z"/>
	</g>
</g>
<g>
	<circle fill-rule="evenodd" clip-rule="evenodd" fill="#E00000" cx="326" cy="200" r="9"/>
	<g>
		<path fill="#FEFEFE" d="M324.445,204.503h-1.811v-4.957l0.018-0.814l0.029-0.891c-0.301,0.301-0.51,0.498-0.627,0.592
			l-0.984,0.791l-0.873-1.09l2.76-2.197h1.488V204.503z"/>
		<path fill="#FEFEFE" d="M330.694,204.503h-1.811v-4.957l0.018-0.814l0.029-0.891c-0.301,0.301-0.51,0.498-0.627,0.592
			l-0.984,0.791l-0.873-1.09l2.76-2.197h1.488V204.503z"/>
	</g>
</g>
<g>
	<circle fill-rule="evenodd" clip-rule="evenodd" fill="#E00000" cx="302" cy="200" r="9"/>
	<g>
		<path fill="#FEFEFE" d="M300.445,204.503h-1.811v-4.957l0.018-0.814l0.029-0.891c-0.301,0.301-0.51,0.498-0.627,0.592
			l-0.984,0.791l-0.873-1.09l2.76-2.197h1.488V204.503z"/>
		<path fill="#FEFEFE" d="M308.159,200.22c0,1.496-0.245,2.604-0.735,3.322s-1.245,1.078-2.265,1.078
			c-0.988,0-1.733-0.371-2.235-1.113s-0.753-1.838-0.753-3.287c0-1.512,0.244-2.626,0.732-3.343s1.24-1.075,2.256-1.075
			c0.988,0,1.735,0.375,2.241,1.125S308.159,198.774,308.159,200.22z M303.97,200.22c0,1.051,0.091,1.804,0.272,2.259
			s0.487,0.683,0.917,0.683c0.422,0,0.727-0.23,0.914-0.691s0.281-1.211,0.281-2.25c0-1.051-0.095-1.806-0.284-2.265
			s-0.493-0.688-0.911-0.688c-0.426,0-0.73,0.229-0.914,0.688S303.97,199.169,303.97,200.22z"/>
	</g>
</g>
<g>
	<circle fill-rule="evenodd" clip-rule="evenodd" fill="#E00000" cx="278" cy="200" r="9"/>
	<g>
		<path fill="#FEFEFE" d="M281.047,199.593c0,1.688-0.355,2.947-1.066,3.779s-1.787,1.248-3.229,1.248
			c-0.508,0-0.893-0.027-1.154-0.082v-1.453c0.328,0.082,0.672,0.123,1.031,0.123c0.605,0,1.104-0.089,1.494-0.267
			s0.689-0.457,0.896-0.838s0.326-0.905,0.357-1.573h-0.07c-0.227,0.367-0.488,0.625-0.785,0.773s-0.668,0.223-1.113,0.223
			c-0.746,0-1.334-0.239-1.764-0.718S275,199.665,275,198.813c0-0.918,0.261-1.644,0.782-2.177s1.231-0.8,2.13-0.8
			c0.633,0,1.187,0.148,1.661,0.445s0.839,0.728,1.093,1.292S281.047,198.812,281.047,199.593z M277.947,197.29
			c-0.375,0-0.668,0.129-0.879,0.387s-0.316,0.629-0.316,1.113c0,0.414,0.096,0.742,0.287,0.984s0.482,0.363,0.873,0.363
			c0.367,0,0.682-0.12,0.943-0.36s0.393-0.517,0.393-0.829c0-0.465-0.122-0.857-0.366-1.178S278.326,197.29,277.947,197.29z"/>
	</g>
</g>
<g>
	<circle fill-rule="evenodd" clip-rule="evenodd" fill="#E00000" cx="254" cy="200" r="9"/>
	<g>
		<path fill="#FEFEFE" d="M254.047,195.825c0.82,0,1.481,0.187,1.983,0.56s0.753,0.876,0.753,1.509c0,0.438-0.121,0.827-0.363,1.169
			s-0.633,0.647-1.172,0.917c0.641,0.344,1.101,0.702,1.38,1.075s0.419,0.782,0.419,1.228c0,0.703-0.275,1.269-0.826,1.696
			s-1.275,0.642-2.174,0.642c-0.938,0-1.674-0.199-2.209-0.598s-0.803-0.963-0.803-1.693c0-0.488,0.13-0.922,0.39-1.301
			s0.677-0.713,1.251-1.002c-0.488-0.309-0.84-0.639-1.055-0.99s-0.322-0.736-0.322-1.154c0-0.613,0.254-1.109,0.762-1.488
			S253.23,195.825,254.047,195.825z M252.711,202.224c0,0.336,0.117,0.598,0.352,0.785s0.555,0.281,0.961,0.281
			c0.449,0,0.785-0.097,1.008-0.29s0.334-0.448,0.334-0.765c0-0.262-0.11-0.507-0.331-0.735s-0.579-0.472-1.075-0.729
			C253.127,201.153,252.711,201.638,252.711,202.224z M254.035,197.149c-0.309,0-0.558,0.079-0.747,0.237s-0.284,0.37-0.284,0.636
			c0,0.234,0.075,0.444,0.226,0.63s0.423,0.376,0.817,0.571c0.383-0.18,0.65-0.363,0.803-0.551s0.229-0.404,0.229-0.65
			c0-0.27-0.098-0.482-0.293-0.639S254.34,197.149,254.035,197.149z"/>
	</g>
</g>
<g>
	<rect x="338" y="213" fill-rule="evenodd" clip-rule="evenodd" fill="#AAAAAA" width="23" height="20"/>
	<rect x="314" y="213" fill-rule="evenodd" clip-rule="evenodd" fill="#AAAAAA" width="23" height="20"/>
	<rect x="290" y="213" fill-rule="evenodd" clip-rule="evenodd" fill="#AAAAAA" width="23" height="20"/>
	<path fill-rule="evenodd" clip-rule="evenodd" fill="#AAAAAA" d="M245.8,213c-1.98,0-3.8,1.62-3.8,3.6v12.8
		c0,1.98,1.82,3.6,3.8,3.6H265v-20H245.8z"/>
	<rect x="266" y="213" fill-rule="evenodd" clip-rule="evenodd" fill="#AAAAAA" width="23" height="20"/>
	<path fill-rule="evenodd" clip-rule="evenodd" fill="#AAAAAA" d="M380.4,213H362v20h18.4c1.98,0,3.6-1.62,3.6-3.6v-12.8
		C384,214.62,382.38,213,380.4,213z"/>
</g>
<path fill-rule="evenodd" clip-rule="evenodd" d="M261,220.558v6.884c0,0.861-1.197,1.558-2.056,1.558h-10.889
	c-0.859,0-2.056-0.697-2.056-1.558v-6.884c0-0.86,1.196-1.558,2.056-1.558h2.444l0,0c0,0,0.7-2,1.563-2h2.874
	c0.863,0,1.563,1,1.563,2l0,0h2.444C259.803,219,261,219.698,261,220.558z M249.75,223.75c0,2.071,1.679,3.75,3.75,3.75
	c2.071,0,3.75-1.679,3.75-3.75c0-2.072-1.679-3.75-3.75-3.75C251.429,220,249.75,221.679,249.75,223.75z M251.25,223.75
	c0,1.243,1.007,2.25,2.25,2.25c1.243,0,2.25-1.007,2.25-2.25c0-1.243-1.007-2.25-2.25-2.25
	C252.257,221.5,251.25,222.507,251.25,223.75z"/>
<path fill-rule="evenodd" clip-rule="evenodd" d="M282.468,222.985c-0.457,1.065-4.458,6.525-4.458,6.525s-4-5.508-4.458-6.525
	c-0.323-0.717-0.552-1.777-0.552-2.58c0-2.709,2.291-4.905,5-4.905s5,2.196,5,4.905C283,221.202,282.755,222.316,282.468,222.985z
	 M277.977,216.993c-1.935,0-3.504,1.568-3.504,3.503s1.569,3.503,3.504,3.503c1.934,0,3.503-1.568,3.503-3.503
	S279.91,216.993,277.977,216.993z"/>
<path fill-rule="evenodd" clip-rule="evenodd" d="M377.742,224.846c-1.054-0.607-2.364-0.367-3.14,0.51l-2.711-1.565
	c0.083-0.251,0.139-0.513,0.139-0.791s-0.056-0.541-0.139-0.791l2.712-1.565c0.775,0.877,2.086,1.118,3.14,0.511
	c1.202-0.694,1.615-2.233,0.92-3.436c-0.694-1.202-2.232-1.615-3.436-0.921c-1.054,0.608-1.5,1.864-1.129,2.974l-2.71,1.565
	c-0.461-0.519-1.125-0.852-1.873-0.852c-1.389,0-2.515,1.126-2.515,2.515s1.126,2.515,2.515,2.515c0.749,0,1.413-0.334,1.874-0.853
	l2.71,1.565c-0.372,1.109,0.075,2.366,1.129,2.975c1.203,0.694,2.741,0.281,3.436-0.921
	C379.357,227.079,378.944,225.54,377.742,224.846z"/>
<g>
	<path fill="#555555" d="M295.5,68h-191c-2.761,0-5-2.239-5-5V32h201v31C300.5,65.761,298.261,68,295.5,68z"/>
	<path fill-rule="evenodd" clip-rule="evenodd" fill="#FEFEFE" d="M293,48.501L281,60.5l-1.025-1.025L290.951,48.5l-10.976-10.975
		L281,36.5l12,11.999l-0.003,0.001L293,48.501z"/>
	<path fill-rule="evenodd" clip-rule="evenodd" fill="#FEFEFE" d="M107.003,48.5L107,48.499L119,36.5l1.025,1.025L109.049,48.5
		l10.976,10.975L119,60.5l-12-11.999L107.003,48.5z"/>
	<g>
		<path fill-rule="evenodd" clip-rule="evenodd" fill="#FEFEFE" d="M140.002,39.456l8.023,8.025l-1.024,1.025l-6.251-6.251V57.5
			h-1.5V42.255L133,48.507l-1.025-1.025l8.025-8.026L140,39.459L140.002,39.456z"/>
	</g>
	<path fill-rule="evenodd" clip-rule="evenodd" fill="#FEFEFE" d="M163.561,56H170v1.5h-7.5H161V56v-7.5h1.5v6.44l5.212-5.213
		l1.061,1.061L163.561,56z M171.228,46.213l1.06,1.061l5.212-5.213v6.44h1.5V41v-1.5h-1.5H170V41h6.439L171.228,46.213z"/>
	<g>
		<polygon fill-rule="evenodd" clip-rule="evenodd" fill="#FEFEFE" points="194,54.5 200,48.5 206,54.5 		"/>
		<path fill-rule="evenodd" clip-rule="evenodd" fill="#FEFEFE" d="M189.5,38.007v1.5h3V45.5h15v-5.993h3v-1.5H189.5z M201.5,39.507
			V44h-3v-4.493H201.5z M194,39.507h3V44h-3V39.507z M206,44h-3v-4.493h3V44z"/>
	</g>
	<path fill-rule="evenodd" clip-rule="evenodd" fill="#FEFEFE" d="M236,42.5l-6,6l-6-6H236z M240.5,57.5V59h-21v-1.5h3v-6h15v6
		H240.5z M236,57.5V53h-12v4.5H236z"/>
	<path fill-rule="evenodd" clip-rule="evenodd" fill="#FEFEFE" d="M270.5,40.285c0-1.262-1.023-2.285-2.285-2.285h-16.43
		c-1.262,0-2.285,1.023-2.285,2.285v16.43c0,1.262,1.023,2.285,2.285,2.285h16.43c1.262,0,2.285-1.023,2.285-2.285V40.285z
		 M257,53.306v-9.54l8.555,4.769L257,53.306z"/>
</g>
<g>
	<path fill-rule="evenodd" clip-rule="evenodd" fill="#FFFFFF" d="M260.912,128.115l-13.175,3.382l1.465-4.967
		c-7.542-2.191-15.282-3.914-23.204-5.089l0.702-4.702c8.142,1.207,16.097,2.978,23.848,5.229l1.408-4.772L260.912,128.115z
		 M152.263,131.497l-13.175-3.382l8.956-10.918l1.408,4.773c7.751-2.252,15.706-4.023,23.848-5.23l0.701,4.698
		c-7.922,1.174-15.663,2.896-23.205,5.086L152.263,131.497z"/>
	<path fill-rule="evenodd" clip-rule="evenodd" fill="#FFFFFF" d="M213.819,143.188c-0.066,3.773-3.141,6.812-6.929,6.812h-10.114
		c-2.966,0-5.188-2.244-6.257-3.959l-6.204-10.562c-0.801-1.388-0.329-3.161,1.055-3.96c1.384-0.799,3.155-0.321,3.957,1.067
		l1.291,2.198l0.09-0.966v-16.755c0-1.603,1.295-2.902,2.893-2.902s2.893,1.299,2.893,2.902v8.598
		c0.038-1.569,1.313-2.831,2.886-2.831c1.598,0,2.893,1.299,2.893,2.902v1.663c0.038-1.569,1.312-2.831,2.886-2.831
		c1.598,0,2.893,1.299,2.893,2.902v1.663c0.038-1.569,1.312-2.831,2.886-2.831c1.598,0,2.893,1.299,2.893,2.902v13.856
		C213.833,143.101,213.821,143.143,213.819,143.188z"/>
</g>
<path d="M333.508,223v4l-8,3l-8-3v-4l4.375-1.625l1.125,1.125l-4.094,1.5l6.594,2.469l6.594-2.469l-4.094-1.5l1.125-1.125
	L333.508,223z M321.508,219h3v-4h2v4h3l-4,4L321.508,219z"/>
<g>
	<path fill="#999999" d="M218.783,227h-1.147v-4.609c0-0.55,0.014-0.986,0.039-1.309c-0.074,0.078-0.167,0.165-0.275,0.259
		c-0.109,0.095-0.475,0.395-1.097,0.898l-0.576-0.728l2.1-1.65h0.957V227z"/>
	<path fill="#999999" d="M224.501,219.861L221.845,227h-1.084l2.661-7.139H224.501z"/>
	<path fill="#999999" d="M228.393,227h-1.147v-4.609c0-0.55,0.014-0.986,0.039-1.309c-0.074,0.078-0.167,0.165-0.275,0.259
		c-0.109,0.095-0.475,0.395-1.097,0.898l-0.576-0.728l2.1-1.65h0.957V227z"/>
	<path fill="#999999" d="M235.57,223.431c0,1.24-0.199,2.162-0.598,2.764c-0.399,0.603-1.009,0.903-1.829,0.903
		c-0.794,0-1.396-0.311-1.807-0.933c-0.41-0.621-0.615-1.533-0.615-2.734c0-1.26,0.199-2.188,0.599-2.785
		c0.398-0.598,1.007-0.896,1.823-0.896c0.798,0,1.401,0.313,1.812,0.938S235.57,222.227,235.57,223.431z M231.884,223.431
		c0,0.974,0.101,1.669,0.301,2.085c0.2,0.417,0.52,0.625,0.959,0.625s0.761-0.211,0.965-0.635c0.203-0.423,0.305-1.114,0.305-2.075
		c0-0.957-0.102-1.649-0.305-2.077c-0.204-0.429-0.525-0.643-0.965-0.643s-0.759,0.21-0.959,0.63S231.884,222.458,231.884,223.431z"
		/>
</g>
<path fill-rule="evenodd" clip-rule="evenodd" d="M356.5,216.5c-0.365,0-0.672,0.207-0.847,0.5h-1.45l-0.484,2H344l1.359,5l6.891,1
	l-0.242,1H347.5c-0.828,0-1.5,0.672-1.5,1.5s0.672,1.5,1.5,1.5s1.5-0.672,1.5-1.5c0-0.176-0.036-0.343-0.092-0.5h2.184
	c-0.056,0.157-0.092,0.324-0.092,0.5c0,0.828,0.672,1.5,1.5,1.5s1.5-0.672,1.5-1.5c0-0.646-0.412-1.193-0.986-1.404l1.978-8.096
	h0.661c0.175,0.293,0.482,0.5,0.847,0.5c0.552,0,1-0.448,1-1S357.052,216.5,356.5,216.5z"/>
<path fill-rule="evenodd" clip-rule="evenodd" d="M307.984,229H296c0-1.715,1.618-2.656,3.888-2.993l0.001-0.009
	c1.314-0.248,0.33-1.785-0.071-2.474c-0.208-0.313-0.389-0.655-0.537-1.011c-0.253,0.031-0.494-0.126-0.55-0.38l-0.219-0.976
	c-0.056-0.25,0.091-0.491,0.326-0.574c-0.063-2.194,0.748-4.104,3.162-4.104s3.224,1.91,3.162,4.104
	c0.235,0.083,0.382,0.324,0.326,0.574l-0.219,0.976c-0.056,0.254-0.297,0.411-0.55,0.38c-0.148,0.355-0.328,0.697-0.536,1.01
	c-0.336,0.575-1.264,2.235-0.078,2.469C306.34,226.339,307.984,227.303,307.984,229z"/>
</svg>
