<?xml version="1.0" encoding="utf-8"?>
<!-- Generator: Adobe Illustrator 19.2.1, SVG Export Plug-In . SVG Version: 6.00 Build 0)  -->
<svg version="1.1" id="Layer_1" xmlns="http://www.w3.org/2000/svg" xmlns:xlink="http://www.w3.org/1999/xlink" x="0px" y="0px"
	 width="400px" height="180px" viewBox="0 0 400 180" enable-background="new 0 0 400 180" xml:space="preserve">
<rect fill-rule="evenodd" clip-rule="evenodd" fill="#323232" width="400" height="180"/>
<rect x="10" fill="#303030" width="380" height="24"/>
<path fill="#777777" d="M385,145H15c-2.761,0-5-2.239-5-5V24h380v116C390,142.761,387.761,145,385,145z"/>
<linearGradient id="SVGID_1_" gradientUnits="userSpaceOnUse" x1="10" y1="56.75" x2="181" y2="56.75">
	<stop  offset="0" style="stop-color:#010101;stop-opacity:0.5"/>
	<stop  offset="1" style="stop-color:#010101;stop-opacity:0"/>
</linearGradient>
<rect x="10" y="24" fill="url(#SVGID_1_)" width="171" height="65.5"/>
<g>
	<path fill="#CCCCCC" d="M37.371,15.5l-0.713-1.982h-2.729L33.23,15.5H32l2.671-7.168h1.27l2.671,7.168H37.371z M36.351,12.512
		l-0.669-1.943c-0.049-0.13-0.116-0.335-0.203-0.615s-0.146-0.485-0.178-0.615c-0.088,0.4-0.216,0.838-0.386,1.313l-0.645,1.86
		H36.351z"/>
	<path fill="#CCCCCC" d="M42.19,10.002c0.674,0,1.199,0.244,1.575,0.732s0.564,1.173,0.564,2.056c0,0.885-0.19,1.575-0.571,2.068
		s-0.91,0.74-1.587,0.74c-0.684,0-1.214-0.246-1.592-0.737h-0.078l-0.21,0.64h-0.859V7.902h1.147v1.807
		c0,0.133-0.006,0.332-0.02,0.596s-0.023,0.431-0.029,0.503h0.049C40.944,10.271,41.481,10.002,42.19,10.002z M41.893,10.939
		c-0.462,0-0.795,0.136-0.999,0.408s-0.309,0.727-0.315,1.365v0.078c0,0.658,0.104,1.134,0.313,1.428s0.548,0.442,1.021,0.442
		c0.407,0,0.715-0.161,0.925-0.483s0.315-0.788,0.315-1.396C43.152,11.553,42.732,10.939,41.893,10.939z"/>
	<path fill="#CCCCCC" d="M50.452,12.79c0,0.882-0.226,1.571-0.679,2.065s-1.083,0.742-1.89,0.742c-0.504,0-0.951-0.114-1.338-0.342
		s-0.685-0.555-0.894-0.981s-0.313-0.921-0.313-1.484c0-0.875,0.225-1.559,0.674-2.051s1.083-0.737,1.899-0.737
		c0.781,0,1.4,0.251,1.855,0.754S50.452,11.937,50.452,12.79z M46.521,12.79c0,1.247,0.46,1.87,1.382,1.87
		c0.912,0,1.367-0.624,1.367-1.87c0-1.234-0.459-1.851-1.377-1.851c-0.482,0-0.831,0.16-1.047,0.479S46.521,12.194,46.521,12.79z"/>
	<path fill="#CCCCCC" d="M55.579,15.5l-0.161-0.708h-0.059c-0.16,0.25-0.387,0.448-0.681,0.591s-0.631,0.215-1.008,0.215
		c-0.654,0-1.143-0.163-1.465-0.488s-0.483-0.819-0.483-1.479V10.1h1.157v3.33c0,0.414,0.084,0.724,0.254,0.93
		s0.435,0.31,0.796,0.31c0.482,0,0.836-0.144,1.062-0.432s0.339-0.771,0.339-1.448V10.1h1.152v5.4H55.579z"/>
	<path fill="#CCCCCC" d="M60.13,14.67c0.28,0,0.56-0.044,0.84-0.132v0.864c-0.127,0.055-0.291,0.102-0.491,0.139
		s-0.408,0.056-0.623,0.056c-1.087,0-1.631-0.573-1.631-1.719v-2.91h-0.737v-0.508l0.791-0.42l0.391-1.143h0.708V10.1h1.538v0.869
		h-1.538v2.891c0,0.277,0.069,0.481,0.208,0.613S59.905,14.67,60.13,14.67z"/>
	<path fill="#CCCCCC" d="M73,9.26c-0.67,0-1.197,0.238-1.582,0.713s-0.576,1.131-0.576,1.968c0,0.875,0.185,1.538,0.554,1.987
		c0.369,0.449,0.904,0.674,1.604,0.674c0.303,0,0.596-0.03,0.879-0.09s0.578-0.138,0.885-0.232v1.001
		c-0.561,0.211-1.195,0.317-1.904,0.317c-1.045,0-1.848-0.316-2.408-0.95s-0.84-1.539-0.84-2.717c0-0.742,0.136-1.392,0.408-1.948
		S70.685,9,71.199,8.703s1.118-0.444,1.811-0.444c0.73,0,1.404,0.153,2.021,0.459l-0.42,0.972c-0.24-0.114-0.494-0.214-0.764-0.3
		C73.581,9.303,73.297,9.26,73,9.26z"/>
	<path fill="#CCCCCC" d="M80.97,12.79c0,0.882-0.227,1.571-0.679,2.065s-1.082,0.742-1.89,0.742c-0.505,0-0.95-0.114-1.338-0.342
		s-0.686-0.555-0.894-0.981s-0.313-0.921-0.313-1.484c0-0.875,0.225-1.559,0.674-2.051s1.082-0.737,1.899-0.737
		c0.781,0,1.399,0.251,1.855,0.754S80.97,11.937,80.97,12.79z M77.04,12.79c0,1.247,0.461,1.87,1.382,1.87
		c0.911,0,1.367-0.624,1.367-1.87c0-1.234-0.459-1.851-1.377-1.851c-0.481,0-0.831,0.16-1.048,0.479
		C77.148,11.737,77.04,12.194,77.04,12.79z"/>
	<path fill="#CCCCCC" d="M87.039,15.5h-1.152v-3.32c0-0.417-0.084-0.728-0.251-0.933c-0.168-0.205-0.435-0.308-0.799-0.308
		c-0.485,0-0.84,0.143-1.064,0.43s-0.337,0.767-0.337,1.44v2.69h-1.147v-5.4h0.898l0.161,0.708h0.059
		c0.163-0.257,0.394-0.456,0.693-0.596s0.632-0.21,0.996-0.21c1.296,0,1.943,0.659,1.943,1.978V15.5z"/>
	<path fill="#CCCCCC" d="M90.647,14.67c0.28,0,0.56-0.044,0.84-0.132v0.864c-0.127,0.055-0.291,0.102-0.49,0.139
		c-0.201,0.038-0.408,0.056-0.623,0.056c-1.087,0-1.631-0.573-1.631-1.719v-2.91h-0.737v-0.508l0.791-0.42l0.391-1.143h0.708V10.1
		h1.538v0.869h-1.538v2.891c0,0.277,0.069,0.481,0.207,0.613C90.241,14.604,90.422,14.67,90.647,14.67z"/>
	<path fill="#CCCCCC" d="M95.946,15.5l-0.229-0.752h-0.039c-0.261,0.329-0.522,0.553-0.786,0.671s-0.603,0.178-1.016,0.178
		c-0.53,0-0.945-0.143-1.242-0.43c-0.299-0.287-0.447-0.692-0.447-1.216c0-0.557,0.207-0.977,0.62-1.26s1.043-0.438,1.89-0.464
		l0.933-0.029v-0.288c0-0.345-0.081-0.603-0.241-0.774c-0.162-0.171-0.411-0.256-0.75-0.256c-0.276,0-0.542,0.041-0.796,0.122
		s-0.498,0.177-0.732,0.288l-0.371-0.82c0.293-0.153,0.613-0.27,0.962-0.349s0.677-0.12,0.986-0.12c0.687,0,1.205,0.15,1.555,0.449
		c0.351,0.299,0.525,0.77,0.525,1.411V15.5H95.946z M94.237,14.719c0.417,0,0.751-0.116,1.004-0.349
		c0.252-0.233,0.378-0.559,0.378-0.979v-0.469l-0.693,0.029c-0.54,0.02-0.934,0.11-1.179,0.271c-0.246,0.161-0.369,0.408-0.369,0.74
		c0,0.241,0.071,0.427,0.215,0.559S93.951,14.719,94.237,14.719z"/>
	<path fill="#CCCCCC" d="M100.545,15.598c-0.817,0-1.438-0.238-1.863-0.715c-0.424-0.477-0.637-1.161-0.637-2.053
		c0-0.908,0.223-1.606,0.666-2.095c0.445-0.488,1.087-0.732,1.927-0.732c0.569,0,1.082,0.106,1.538,0.317l-0.347,0.923
		c-0.485-0.189-0.886-0.283-1.201-0.283c-0.935,0-1.401,0.62-1.401,1.86c0,0.605,0.116,1.061,0.35,1.365
		c0.232,0.304,0.573,0.457,1.022,0.457c0.511,0,0.994-0.127,1.45-0.381v1.001c-0.205,0.121-0.424,0.207-0.656,0.259
		C101.16,15.572,100.877,15.598,100.545,15.598z"/>
	<path fill="#CCCCCC" d="M105.331,14.67c0.28,0,0.56-0.044,0.84-0.132v0.864c-0.127,0.055-0.291,0.102-0.49,0.139
		c-0.201,0.038-0.408,0.056-0.623,0.056c-1.087,0-1.631-0.573-1.631-1.719v-2.91h-0.737v-0.508l0.791-0.42l0.391-1.143h0.708V10.1
		h1.538v0.869h-1.538v2.891c0,0.277,0.069,0.481,0.207,0.613C104.924,14.604,105.106,14.67,105.331,14.67z"/>
	<path fill="#CCCCCC" d="M119.28,13.562c0,0.635-0.229,1.133-0.688,1.494s-1.092,0.542-1.899,0.542s-1.468-0.125-1.982-0.376v-1.104
		c0.325,0.153,0.672,0.273,1.037,0.361c0.367,0.088,0.708,0.132,1.023,0.132c0.462,0,0.803-0.088,1.023-0.264
		c0.219-0.176,0.329-0.412,0.329-0.708c0-0.267-0.101-0.493-0.303-0.679s-0.618-0.405-1.25-0.659
		c-0.651-0.264-1.11-0.565-1.377-0.903s-0.4-0.746-0.4-1.221c0-0.596,0.212-1.064,0.635-1.406s0.991-0.513,1.704-0.513
		c0.684,0,1.364,0.15,2.041,0.449l-0.371,0.952c-0.635-0.267-1.201-0.4-1.699-0.4c-0.378,0-0.664,0.082-0.859,0.247
		s-0.293,0.382-0.293,0.652c0,0.186,0.039,0.344,0.117,0.476s0.207,0.256,0.386,0.374s0.501,0.272,0.967,0.464
		c0.524,0.218,0.908,0.421,1.152,0.61s0.423,0.402,0.537,0.64S119.28,13.239,119.28,13.562z"/>
	<path fill="#CCCCCC" d="M120.471,8.669c0-0.205,0.057-0.363,0.168-0.474c0.113-0.111,0.273-0.166,0.481-0.166
		c0.202,0,0.358,0.055,0.472,0.166c0.111,0.111,0.168,0.269,0.168,0.474c0,0.195-0.057,0.349-0.168,0.461
		c-0.113,0.112-0.27,0.168-0.472,0.168c-0.208,0-0.368-0.056-0.481-0.168C120.528,9.018,120.471,8.864,120.471,8.669z M121.687,15.5
		h-1.147v-5.4h1.147V15.5z"/>
	<path fill="#CCCCCC" d="M125.34,14.67c0.28,0,0.56-0.044,0.84-0.132v0.864c-0.127,0.055-0.291,0.102-0.49,0.139
		c-0.201,0.038-0.408,0.056-0.623,0.056c-1.087,0-1.631-0.573-1.631-1.719v-2.91h-0.737v-0.508l0.791-0.42l0.391-1.143h0.708V10.1
		h1.538v0.869h-1.538v2.891c0,0.277,0.069,0.481,0.207,0.613C124.934,14.604,125.116,14.67,125.34,14.67z"/>
	<path fill="#CCCCCC" d="M129.617,15.598c-0.84,0-1.497-0.245-1.97-0.735c-0.475-0.49-0.711-1.165-0.711-2.024
		c0-0.882,0.22-1.576,0.659-2.08s1.043-0.757,1.812-0.757c0.713,0,1.276,0.216,1.689,0.649s0.62,1.029,0.62,1.787v0.62h-3.599
		c0.017,0.524,0.158,0.927,0.425,1.208s0.643,0.422,1.128,0.422c0.319,0,0.616-0.03,0.891-0.09c0.275-0.06,0.571-0.16,0.887-0.3
		v0.933c-0.28,0.133-0.563,0.228-0.85,0.283S129.985,15.598,129.617,15.598z M129.407,10.871c-0.364,0-0.656,0.116-0.877,0.347
		c-0.219,0.231-0.351,0.568-0.393,1.011h2.451c-0.007-0.446-0.114-0.784-0.322-1.013S129.771,10.871,129.407,10.871z"/>
	<path fill="#CCCCCC" d="M140.168,15.5h-1.152v-3.33c0-0.414-0.078-0.722-0.234-0.925s-0.4-0.305-0.732-0.305
		c-0.442,0-0.768,0.144-0.975,0.432c-0.206,0.288-0.31,0.768-0.31,1.438v2.69h-1.147v-5.4h0.898l0.161,0.708h0.059
		c0.149-0.257,0.367-0.456,0.651-0.596c0.285-0.14,0.599-0.21,0.94-0.21c0.83,0,1.38,0.283,1.65,0.85h0.078
		c0.159-0.267,0.384-0.475,0.674-0.625s0.622-0.225,0.996-0.225c0.645,0,1.114,0.163,1.409,0.488
		c0.294,0.326,0.441,0.822,0.441,1.489V15.5h-1.147v-3.33c0-0.414-0.079-0.722-0.237-0.925c-0.157-0.204-0.402-0.305-0.734-0.305
		c-0.446,0-0.772,0.139-0.979,0.417c-0.207,0.278-0.311,0.706-0.311,1.282V15.5z"/>
	<path fill="#CCCCCC" d="M148.557,15.5l-0.229-0.752h-0.039c-0.261,0.329-0.522,0.553-0.786,0.671s-0.603,0.178-1.016,0.178
		c-0.53,0-0.945-0.143-1.242-0.43c-0.299-0.287-0.447-0.692-0.447-1.216c0-0.557,0.207-0.977,0.62-1.26s1.043-0.438,1.89-0.464
		l0.933-0.029v-0.288c0-0.345-0.081-0.603-0.241-0.774c-0.162-0.171-0.411-0.256-0.75-0.256c-0.276,0-0.542,0.041-0.796,0.122
		s-0.498,0.177-0.732,0.288l-0.371-0.82c0.293-0.153,0.613-0.27,0.962-0.349s0.677-0.12,0.986-0.12c0.687,0,1.205,0.15,1.555,0.449
		c0.351,0.299,0.525,0.77,0.525,1.411V15.5H148.557z M146.848,14.719c0.417,0,0.751-0.116,1.004-0.349
		c0.252-0.233,0.378-0.559,0.378-0.979v-0.469l-0.693,0.029c-0.54,0.02-0.934,0.11-1.179,0.271c-0.246,0.161-0.369,0.408-0.369,0.74
		c0,0.241,0.071,0.427,0.215,0.559S146.562,14.719,146.848,14.719z"/>
	<path fill="#CCCCCC" d="M153.718,15.598c-0.684,0-1.214-0.246-1.592-0.737h-0.068c0.046,0.456,0.068,0.732,0.068,0.83v2.212h-1.147
		V10.1h0.928c0.026,0.101,0.08,0.342,0.161,0.723h0.059c0.358-0.547,0.896-0.82,1.611-0.82c0.674,0,1.198,0.244,1.575,0.732
		c0.375,0.488,0.563,1.173,0.563,2.056s-0.191,1.571-0.573,2.065C154.92,15.35,154.392,15.598,153.718,15.598z M153.44,10.939
		c-0.456,0-0.789,0.133-0.998,0.4c-0.211,0.267-0.315,0.693-0.315,1.279v0.171c0,0.658,0.104,1.134,0.313,1.428
		s0.549,0.442,1.021,0.442c0.397,0,0.703-0.163,0.918-0.488s0.322-0.79,0.322-1.392c0-0.605-0.106-1.063-0.32-1.375
		C154.167,11.095,153.853,10.939,153.44,10.939z"/>
</g>
<path fill-rule="evenodd" clip-rule="evenodd" fill="#CCCCCC" d="M357,16.553l-2.674-2.674c0.444-0.793,0.699-1.706,0.699-2.68
	c0-3.037-2.462-5.5-5.5-5.5c-3.038,0-5.5,2.463-5.5,5.5c0,3.037,2.462,5.5,5.5,5.5c0.974,0,1.887-0.255,2.68-0.699l2.674,2.674
	L357,16.553z M345.525,11.199c0-2.209,1.791-4,4-4c2.209,0,4,1.791,4,4s-1.791,4-4,4C347.316,15.199,345.525,13.408,345.525,11.199z
	"/>
<g>
	<path fill="#F4F4F4" d="M41.396,43.961h-5.801L33.604,49H32.5l5.742-14.336h0.635L44.502,49h-1.123L41.396,43.961z M35.957,43.063
		h5.107l-1.943-5.146c-0.163-0.404-0.358-0.963-0.586-1.68c-0.176,0.625-0.368,1.191-0.576,1.699L35.957,43.063z"/>
	<path fill="#F4F4F4" d="M47.246,49h-0.967V33.805h0.967V49z"/>
	<path fill="#F4F4F4" d="M55.283,38.18c1.484,0,2.603,0.467,3.354,1.401s1.128,2.3,1.128,4.097c0,1.764-0.396,3.125-1.187,4.082
		s-1.903,1.436-3.335,1.436c-0.755,0-1.436-0.156-2.041-0.469s-1.084-0.755-1.436-1.328H51.68L51.406,49h-0.605V33.805h0.967v3.818
		c0,0.573-0.013,1.1-0.039,1.582l-0.029,0.83h0.068c0.404-0.638,0.89-1.107,1.46-1.406S54.482,38.18,55.283,38.18z M55.264,39.059
		c-1.25,0-2.145,0.358-2.686,1.074s-0.811,1.898-0.811,3.545v0.166c0,1.602,0.282,2.75,0.845,3.447s1.44,1.045,2.632,1.045
		c1.159,0,2.031-0.405,2.617-1.216s0.879-1.964,0.879-3.462C58.74,40.592,57.582,39.059,55.264,39.059z"/>
	<path fill="#F4F4F4" d="M63.545,38.385v6.875c0,1.068,0.225,1.844,0.674,2.329s1.146,0.728,2.09,0.728
		c1.263,0,2.192-0.319,2.788-0.957s0.894-1.676,0.894-3.115v-5.859h0.957V49h-0.82l-0.176-1.465h-0.059
		c-0.69,1.107-1.917,1.66-3.682,1.66c-2.416,0-3.623-1.292-3.623-3.877v-6.934H63.545z"/>
	<path fill="#F4F4F4" d="M87.764,49v-6.963c0-1.035-0.202-1.791-0.605-2.266s-1.022-0.713-1.855-0.713
		c-1.087,0-1.891,0.299-2.412,0.898s-0.781,1.54-0.781,2.822V49h-0.986v-7.256c0-1.791-0.82-2.686-2.461-2.686
		c-1.113,0-1.924,0.324-2.432,0.972s-0.762,1.685-0.762,3.11V49h-0.967V38.385h0.801l0.205,1.455h0.059
		c0.293-0.527,0.709-0.936,1.25-1.226s1.136-0.435,1.787-0.435c1.673,0,2.748,0.628,3.223,1.885h0.039
		c0.345-0.605,0.809-1.071,1.392-1.396s1.245-0.488,1.987-0.488c1.159,0,2.028,0.309,2.607,0.928s0.869,1.602,0.869,2.949V49H87.764
		z"/>
	<path fill="#F4F4F4" d="M100.156,48.336c0.612,0,1.146-0.052,1.602-0.156v0.781c-0.469,0.156-1.009,0.234-1.621,0.234
		c-0.938,0-1.629-0.25-2.075-0.752s-0.669-1.289-0.669-2.363v-6.855H95.82v-0.566l1.572-0.439l0.488-2.402h0.498v2.568h3.115v0.84
		h-3.115v6.719c0,0.814,0.143,1.416,0.43,1.807S99.544,48.336,100.156,48.336z"/>
	<path fill="#F4F4F4" d="M103.916,35.436c0-0.625,0.205-0.938,0.615-0.938c0.202,0,0.36,0.082,0.474,0.244s0.171,0.394,0.171,0.693
		c0,0.293-0.057,0.524-0.171,0.693s-0.272,0.254-0.474,0.254C104.121,36.383,103.916,36.067,103.916,35.436z M105.02,49h-0.967
		V38.385h0.967V49z"/>
	<path fill="#F4F4F4" d="M111.377,48.336c0.612,0,1.146-0.052,1.602-0.156v0.781c-0.469,0.156-1.009,0.234-1.621,0.234
		c-0.938,0-1.629-0.25-2.075-0.752s-0.669-1.289-0.669-2.363v-6.855h-1.572v-0.566l1.572-0.439l0.488-2.402h0.498v2.568h3.115v0.84
		H109.6v6.719c0,0.814,0.143,1.416,0.43,1.807S110.765,48.336,111.377,48.336z"/>
	<path fill="#F4F4F4" d="M116.24,49h-0.967V33.805h0.967V49z"/>
	<path fill="#F4F4F4" d="M124.082,49.195c-1.543,0-2.746-0.475-3.608-1.426s-1.294-2.282-1.294-3.994
		c0-1.693,0.417-3.048,1.25-4.067s1.957-1.528,3.369-1.528c1.25,0,2.236,0.436,2.959,1.309s1.084,2.057,1.084,3.555v0.781h-7.646
		c0.013,1.458,0.353,2.572,1.021,3.34s1.623,1.152,2.866,1.152c0.605,0,1.138-0.042,1.597-0.127s1.04-0.267,1.743-0.547v0.879
		c-0.599,0.26-1.152,0.438-1.66,0.532S124.694,49.195,124.082,49.195z M123.799,39.039c-1.022,0-1.842,0.337-2.461,1.011
		s-0.98,1.646-1.084,2.915h6.563c0-1.23-0.267-2.192-0.801-2.886S124.743,39.039,123.799,39.039z"/>
	<path fill="#F4F4F4" d="M39.18,61.362c0,1.178-0.32,2.079-0.959,2.703S36.66,65,35.459,65h-1.978v-7.139h2.188
		c1.11,0,1.973,0.308,2.588,0.923S39.18,60.259,39.18,61.362z M38.301,61.392c0-0.931-0.233-1.632-0.701-2.104
		s-1.161-0.708-2.083-0.708h-1.206v5.703h1.011c0.99,0,1.733-0.243,2.231-0.73S38.301,62.345,38.301,61.392z"/>
	<path fill="#F4F4F4" d="M42.91,65.098c-0.791,0-1.415-0.241-1.873-0.723s-0.686-1.151-0.686-2.007c0-0.863,0.212-1.548,0.637-2.056
		s0.995-0.762,1.711-0.762c0.67,0,1.201,0.221,1.592,0.662s0.586,1.023,0.586,1.746v0.513h-3.687
		c0.016,0.628,0.175,1.105,0.476,1.431s0.725,0.488,1.272,0.488c0.576,0,1.146-0.121,1.709-0.361v0.723
		c-0.287,0.124-0.558,0.212-0.813,0.266S43.271,65.098,42.91,65.098z M42.69,60.229c-0.43,0-0.772,0.14-1.028,0.42
		s-0.406,0.667-0.452,1.162h2.798c0-0.511-0.114-0.902-0.342-1.174S43.114,60.229,42.69,60.229z"/>
	<path fill="#F4F4F4" d="M49.712,63.54c0,0.498-0.186,0.882-0.557,1.152s-0.892,0.405-1.563,0.405c-0.709,0-1.263-0.112-1.66-0.337
		v-0.752c0.257,0.13,0.533,0.233,0.828,0.308s0.579,0.112,0.852,0.112c0.423,0,0.749-0.067,0.977-0.203s0.342-0.341,0.342-0.618
		c0-0.208-0.09-0.387-0.271-0.535s-0.533-0.323-1.057-0.525c-0.498-0.186-0.852-0.348-1.062-0.486s-0.366-0.295-0.469-0.471
		s-0.154-0.386-0.154-0.63c0-0.436,0.177-0.78,0.532-1.033s0.841-0.378,1.46-0.378c0.576,0,1.139,0.117,1.689,0.352l-0.288,0.659
		c-0.537-0.221-1.024-0.332-1.46-0.332c-0.384,0-0.674,0.06-0.869,0.181s-0.293,0.287-0.293,0.498c0,0.143,0.037,0.265,0.11,0.366
		s0.191,0.197,0.354,0.288s0.475,0.223,0.938,0.396c0.635,0.231,1.063,0.464,1.287,0.698S49.712,63.185,49.712,63.54z"/>
	<path fill="#F4F4F4" d="M53.169,65.098c-0.775,0-1.375-0.238-1.799-0.715s-0.637-1.151-0.637-2.024
		c0-0.895,0.216-1.587,0.647-2.075s1.046-0.732,1.843-0.732c0.257,0,0.514,0.028,0.771,0.083s0.459,0.121,0.605,0.195l-0.249,0.688
		c-0.179-0.072-0.375-0.131-0.586-0.178s-0.399-0.071-0.562-0.071c-1.087,0-1.631,0.693-1.631,2.08c0,0.658,0.133,1.162,0.398,1.514
		s0.658,0.527,1.179,0.527c0.446,0,0.903-0.096,1.372-0.288v0.718C54.164,65.005,53.712,65.098,53.169,65.098z"/>
	<path fill="#F4F4F4" d="M58.232,59.551c0.238,0,0.451,0.02,0.64,0.059l-0.112,0.752c-0.221-0.049-0.417-0.073-0.586-0.073
		c-0.433,0-0.803,0.176-1.111,0.527s-0.461,0.79-0.461,1.313V65h-0.811v-5.352h0.669l0.093,0.991h0.039
		c0.199-0.348,0.438-0.617,0.718-0.806S57.897,59.551,58.232,59.551z"/>
	<path fill="#F4F4F4" d="M59.805,58.198c0-0.186,0.045-0.321,0.137-0.408s0.205-0.129,0.342-0.129c0.13,0,0.243,0.044,0.337,0.132
		s0.142,0.223,0.142,0.405s-0.047,0.318-0.142,0.408s-0.207,0.134-0.337,0.134c-0.137,0-0.25-0.045-0.342-0.134
		S59.805,58.38,59.805,58.198z M60.684,65h-0.811v-5.352h0.811V65z"/>
	<path fill="#F4F4F4" d="M64.893,65.098c-0.348,0-0.667-0.064-0.955-0.193s-0.53-0.326-0.725-0.593h-0.059
		c0.039,0.313,0.059,0.609,0.059,0.889v2.202h-0.811v-7.754h0.659l0.112,0.732h0.039c0.208-0.293,0.451-0.504,0.728-0.635
		s0.594-0.195,0.952-0.195c0.709,0,1.257,0.243,1.643,0.728s0.579,1.166,0.579,2.041c0,0.879-0.196,1.562-0.588,2.048
		S65.589,65.098,64.893,65.098z M64.775,60.239c-0.547,0-0.942,0.151-1.187,0.454s-0.37,0.785-0.376,1.445v0.181
		c0,0.752,0.125,1.29,0.376,1.614s0.653,0.486,1.206,0.486c0.462,0,0.824-0.187,1.086-0.562s0.393-0.89,0.393-1.548
		c0-0.667-0.131-1.179-0.393-1.536S65.25,60.239,64.775,60.239z"/>
	<path fill="#F4F4F4" d="M70.259,64.429c0.143,0,0.282-0.011,0.415-0.032s0.239-0.043,0.317-0.066v0.62
		c-0.088,0.042-0.217,0.077-0.388,0.105s-0.325,0.042-0.461,0.042c-1.035,0-1.553-0.545-1.553-1.636v-3.184h-0.767v-0.391
		l0.767-0.337l0.342-1.143h0.469v1.24h1.553v0.63h-1.553v3.149c0,0.322,0.077,0.57,0.229,0.742S69.992,64.429,70.259,64.429z"/>
	<path fill="#F4F4F4" d="M71.992,58.198c0-0.186,0.045-0.321,0.137-0.408s0.205-0.129,0.342-0.129c0.13,0,0.243,0.044,0.337,0.132
		s0.142,0.223,0.142,0.405s-0.047,0.318-0.142,0.408s-0.207,0.134-0.337,0.134c-0.137,0-0.25-0.045-0.342-0.134
		S71.992,58.38,71.992,58.198z M72.871,65h-0.811v-5.352h0.811V65z"/>
	<path fill="#F4F4F4" d="M79.209,62.319c0,0.873-0.22,1.554-0.659,2.043s-1.046,0.735-1.821,0.735c-0.479,0-0.903-0.112-1.274-0.337
		s-0.658-0.547-0.859-0.967s-0.303-0.912-0.303-1.475c0-0.873,0.218-1.552,0.654-2.039s1.042-0.73,1.816-0.73
		c0.749,0,1.344,0.249,1.785,0.747S79.209,61.47,79.209,62.319z M75.132,62.319c0,0.684,0.137,1.205,0.41,1.563
		s0.675,0.537,1.206,0.537s0.934-0.178,1.208-0.535s0.413-0.878,0.413-1.565c0-0.68-0.138-1.197-0.413-1.55s-0.681-0.53-1.218-0.53
		c-0.531,0-0.931,0.174-1.201,0.522S75.132,61.629,75.132,62.319z"/>
	<path fill="#F4F4F4" d="M84.292,65v-3.462c0-0.436-0.099-0.762-0.298-0.977s-0.509-0.322-0.933-0.322
		c-0.56,0-0.97,0.151-1.23,0.454s-0.391,0.802-0.391,1.499V65H80.63v-5.352h0.659l0.132,0.732h0.039
		c0.166-0.264,0.399-0.468,0.698-0.613s0.633-0.217,1.001-0.217c0.645,0,1.129,0.155,1.455,0.466s0.488,0.808,0.488,1.492V65H84.292
		z"/>
	<path fill="#F4F4F4" d="M93.984,62.319c0,0.873-0.22,1.554-0.659,2.043s-1.046,0.735-1.821,0.735c-0.479,0-0.903-0.112-1.274-0.337
		s-0.658-0.547-0.859-0.967s-0.303-0.912-0.303-1.475c0-0.873,0.218-1.552,0.654-2.039s1.042-0.73,1.816-0.73
		c0.749,0,1.344,0.249,1.785,0.747S93.984,61.47,93.984,62.319z M89.907,62.319c0,0.684,0.137,1.205,0.41,1.563
		s0.675,0.537,1.206,0.537s0.934-0.178,1.208-0.535s0.413-0.878,0.413-1.565c0-0.68-0.138-1.197-0.413-1.55s-0.681-0.53-1.218-0.53
		c-0.531,0-0.931,0.174-1.201,0.522S89.907,61.629,89.907,62.319z"/>
	<path fill="#F4F4F4" d="M97.817,60.278h-1.362V65h-0.811v-4.722h-0.957v-0.366l0.957-0.293v-0.298c0-1.315,0.575-1.973,1.724-1.973
		c0.283,0,0.615,0.057,0.996,0.171l-0.21,0.649c-0.313-0.101-0.58-0.151-0.801-0.151c-0.306,0-0.532,0.102-0.679,0.305
		s-0.22,0.53-0.22,0.979v0.347h1.362V60.278z"/>
	<path fill="#F4F4F4" d="M103.12,64.429c0.143,0,0.282-0.011,0.415-0.032s0.239-0.043,0.317-0.066v0.62
		c-0.088,0.042-0.217,0.077-0.388,0.105s-0.325,0.042-0.461,0.042c-1.035,0-1.553-0.545-1.553-1.636v-3.184h-0.767v-0.391
		l0.767-0.337l0.342-1.143h0.469v1.24h1.553v0.63h-1.553v3.149c0,0.322,0.077,0.57,0.229,0.742S102.853,64.429,103.12,64.429z"/>
	<path fill="#F4F4F4" d="M108.584,65v-3.462c0-0.436-0.099-0.762-0.298-0.977s-0.509-0.322-0.933-0.322
		c-0.563,0-0.974,0.153-1.233,0.459s-0.388,0.807-0.388,1.504V65h-0.811v-7.598h0.811v2.3c0,0.277-0.013,0.506-0.039,0.688h0.049
		c0.16-0.257,0.387-0.46,0.681-0.608s0.631-0.222,1.008-0.222c0.654,0,1.145,0.155,1.472,0.466s0.491,0.805,0.491,1.482V65H108.584z
		"/>
	<path fill="#F4F4F4" d="M110.991,58.198c0-0.186,0.045-0.321,0.137-0.408s0.205-0.129,0.342-0.129c0.13,0,0.243,0.044,0.337,0.132
		s0.142,0.223,0.142,0.405s-0.047,0.318-0.142,0.408s-0.207,0.134-0.337,0.134c-0.137,0-0.25-0.045-0.342-0.134
		S110.991,58.38,110.991,58.198z M111.87,65h-0.811v-5.352h0.811V65z"/>
	<path fill="#F4F4F4" d="M117.041,63.54c0,0.498-0.186,0.882-0.557,1.152s-0.892,0.405-1.563,0.405c-0.709,0-1.263-0.112-1.66-0.337
		v-0.752c0.257,0.13,0.533,0.233,0.828,0.308s0.579,0.112,0.852,0.112c0.423,0,0.749-0.067,0.977-0.203s0.342-0.341,0.342-0.618
		c0-0.208-0.09-0.387-0.271-0.535s-0.533-0.323-1.057-0.525c-0.498-0.186-0.852-0.348-1.062-0.486s-0.366-0.295-0.469-0.471
		s-0.154-0.386-0.154-0.63c0-0.436,0.177-0.78,0.532-1.033s0.841-0.378,1.46-0.378c0.576,0,1.139,0.117,1.689,0.352l-0.288,0.659
		c-0.537-0.221-1.024-0.332-1.46-0.332c-0.384,0-0.674,0.06-0.869,0.181s-0.293,0.287-0.293,0.498c0,0.143,0.037,0.265,0.11,0.366
		s0.191,0.197,0.354,0.288s0.475,0.223,0.938,0.396c0.635,0.231,1.063,0.464,1.287,0.698S117.041,63.185,117.041,63.54z"/>
	<path fill="#F4F4F4" d="M123.369,60.278h-1.362V65h-0.811v-4.722h-0.957v-0.366l0.957-0.293v-0.298
		c0-1.315,0.575-1.973,1.724-1.973c0.283,0,0.615,0.057,0.996,0.171l-0.21,0.649c-0.313-0.101-0.58-0.151-0.801-0.151
		c-0.306,0-0.532,0.102-0.679,0.305s-0.22,0.53-0.22,0.979v0.347h1.362V60.278z"/>
	<path fill="#F4F4F4" d="M128.965,62.319c0,0.873-0.22,1.554-0.659,2.043s-1.046,0.735-1.821,0.735
		c-0.479,0-0.903-0.112-1.274-0.337s-0.658-0.547-0.859-0.967s-0.303-0.912-0.303-1.475c0-0.873,0.218-1.552,0.654-2.039
		s1.042-0.73,1.816-0.73c0.749,0,1.344,0.249,1.785,0.747S128.965,61.47,128.965,62.319z M124.888,62.319
		c0,0.684,0.137,1.205,0.41,1.563s0.675,0.537,1.206,0.537s0.934-0.178,1.208-0.535s0.413-0.878,0.413-1.565
		c0-0.68-0.138-1.197-0.413-1.55s-0.681-0.53-1.218-0.53c-0.531,0-0.931,0.174-1.201,0.522S124.888,61.629,124.888,62.319z"/>
	<path fill="#F4F4F4" d="M131.196,65h-0.811v-7.598h0.811V65z"/>
	<path fill="#F4F4F4" d="M136.558,64.282h-0.044c-0.375,0.543-0.934,0.815-1.68,0.815c-0.7,0-1.244-0.239-1.633-0.718
		s-0.583-1.159-0.583-2.041s0.195-1.567,0.586-2.056s0.934-0.732,1.631-0.732c0.726,0,1.283,0.264,1.67,0.791h0.063l-0.034-0.386
		l-0.02-0.376v-2.178h0.811V65h-0.659L136.558,64.282z M134.937,64.419c0.553,0,0.955-0.15,1.204-0.452s0.374-0.787,0.374-1.458
		v-0.171c0-0.758-0.126-1.3-0.378-1.624s-0.655-0.486-1.208-0.486c-0.475,0-0.839,0.185-1.091,0.554s-0.378,0.891-0.378,1.565
		c0,0.684,0.125,1.2,0.376,1.548S134.452,64.419,134.937,64.419z"/>
	<path fill="#F4F4F4" d="M141.304,65.098c-0.791,0-1.415-0.241-1.873-0.723s-0.686-1.151-0.686-2.007
		c0-0.863,0.212-1.548,0.637-2.056s0.995-0.762,1.711-0.762c0.67,0,1.201,0.221,1.592,0.662s0.586,1.023,0.586,1.746v0.513h-3.687
		c0.016,0.628,0.175,1.105,0.476,1.431s0.725,0.488,1.272,0.488c0.576,0,1.146-0.121,1.709-0.361v0.723
		c-0.287,0.124-0.558,0.212-0.813,0.266S141.665,65.098,141.304,65.098z M141.084,60.229c-0.43,0-0.772,0.14-1.028,0.42
		s-0.406,0.667-0.452,1.162h2.798c0-0.511-0.114-0.902-0.342-1.174S141.507,60.229,141.084,60.229z"/>
	<path fill="#F4F4F4" d="M147.095,59.551c0.238,0,0.451,0.02,0.64,0.059l-0.112,0.752c-0.221-0.049-0.417-0.073-0.586-0.073
		c-0.433,0-0.803,0.176-1.111,0.527s-0.461,0.79-0.461,1.313V65h-0.811v-5.352h0.669l0.093,0.991h0.039
		c0.199-0.348,0.438-0.617,0.718-0.806S146.759,59.551,147.095,59.551z"/>
	<path fill="#B2B2B2" d="M35.766,75.289L33.637,81h-1.082l2.129-5.711H35.766z"/>
	<path fill="#F4F4F4" d="M38.602,75.289h1.777c0.81,0,1.398,0.115,1.764,0.346s0.549,0.597,0.549,1.1c0,0.341-0.08,0.621-0.24,0.84
		s-0.373,0.35-0.639,0.395v0.039c0.362,0.081,0.623,0.232,0.783,0.453s0.24,0.516,0.24,0.883c0,0.521-0.188,0.927-0.564,1.219
		S41.384,81,40.738,81h-2.137V75.289z M39.813,77.551h0.703c0.328,0,0.566-0.051,0.713-0.152s0.221-0.27,0.221-0.504
		c0-0.219-0.08-0.375-0.24-0.471s-0.414-0.143-0.76-0.143h-0.637V77.551z M39.813,78.512V80h0.789c0.333,0,0.58-0.064,0.738-0.191
		s0.238-0.323,0.238-0.586c0-0.474-0.338-0.711-1.016-0.711H39.813z"/>
	<path fill="#F4F4F4" d="M46.32,76.551c0.162,0,0.295,0.012,0.402,0.035l-0.09,1.117c-0.096-0.026-0.213-0.039-0.352-0.039
		c-0.38,0-0.676,0.098-0.889,0.293s-0.318,0.469-0.318,0.82V81h-1.191v-4.367h0.902l0.176,0.734h0.059
		c0.135-0.245,0.318-0.442,0.549-0.592S46.049,76.551,46.32,76.551z"/>
	<path fill="#F4F4F4" d="M49.492,81.078c-0.703,0-1.252-0.194-1.648-0.582s-0.594-0.938-0.594-1.648
		c0-0.732,0.183-1.297,0.549-1.697s0.872-0.6,1.518-0.6c0.617,0,1.098,0.176,1.441,0.527s0.516,0.837,0.516,1.457v0.578h-2.816
		c0.013,0.338,0.113,0.603,0.301,0.793s0.451,0.285,0.789,0.285c0.263,0,0.512-0.027,0.746-0.082s0.479-0.142,0.734-0.262v0.922
		c-0.208,0.104-0.431,0.182-0.668,0.232S49.833,81.078,49.492,81.078z M49.324,77.398c-0.252,0-0.451,0.08-0.594,0.24
		s-0.225,0.387-0.246,0.682h1.672c-0.005-0.294-0.082-0.521-0.23-0.682S49.577,77.398,49.324,77.398z"/>
	<path fill="#F4F4F4" d="M55.016,81l-0.23-0.594h-0.031c-0.201,0.252-0.407,0.428-0.619,0.525s-0.489,0.146-0.83,0.146
		c-0.419,0-0.75-0.12-0.99-0.359s-0.361-0.581-0.361-1.023c0-0.463,0.162-0.805,0.486-1.025s0.813-0.342,1.467-0.365l0.758-0.023
		V78.09c0-0.443-0.227-0.664-0.68-0.664c-0.349,0-0.759,0.105-1.23,0.316l-0.395-0.805c0.502-0.263,1.06-0.395,1.672-0.395
		c0.586,0,1.035,0.127,1.348,0.383s0.469,0.643,0.469,1.164V81H55.016z M54.664,78.977l-0.461,0.016
		c-0.346,0.01-0.604,0.073-0.773,0.188s-0.254,0.289-0.254,0.523c0,0.336,0.193,0.504,0.578,0.504c0.276,0,0.497-0.08,0.662-0.238
		s0.248-0.37,0.248-0.633V78.977z"/>
	<path fill="#F4F4F4" d="M58.457,81.078c-0.513,0-0.916-0.199-1.209-0.598s-0.439-0.951-0.439-1.656
		c0-0.716,0.149-1.274,0.447-1.674s0.709-0.6,1.232-0.6c0.549,0,0.969,0.213,1.258,0.641h0.039c-0.06-0.326-0.09-0.616-0.09-0.871
		v-1.398h1.195V81h-0.914l-0.23-0.566h-0.051C59.424,80.863,59.012,81.078,58.457,81.078z M58.875,80.129
		c0.305,0,0.528-0.088,0.67-0.266s0.219-0.478,0.232-0.902v-0.129c0-0.469-0.072-0.805-0.217-1.008s-0.379-0.305-0.705-0.305
		c-0.266,0-0.472,0.113-0.619,0.338s-0.221,0.553-0.221,0.982s0.074,0.752,0.223,0.967S58.599,80.129,58.875,80.129z"/>
	<path fill="#F4F4F4" d="M63.91,81.078c-1.359,0-2.039-0.746-2.039-2.238c0-0.742,0.185-1.309,0.555-1.701s0.9-0.588,1.59-0.588
		c0.505,0,0.958,0.099,1.359,0.297l-0.352,0.922c-0.188-0.076-0.362-0.137-0.523-0.186s-0.323-0.072-0.484-0.072
		c-0.62,0-0.93,0.44-0.93,1.32c0,0.854,0.31,1.281,0.93,1.281c0.229,0,0.441-0.031,0.637-0.092s0.391-0.157,0.586-0.287v1.02
		c-0.193,0.123-0.387,0.207-0.584,0.254S64.209,81.078,63.91,81.078z"/>
	<path fill="#F4F4F4" d="M68.688,76.551c0.162,0,0.295,0.012,0.402,0.035L69,77.703c-0.096-0.026-0.213-0.039-0.352-0.039
		c-0.38,0-0.676,0.098-0.889,0.293s-0.318,0.469-0.318,0.82V81H66.25v-4.367h0.902l0.176,0.734h0.059
		c0.135-0.245,0.318-0.442,0.549-0.592S68.417,76.551,68.688,76.551z"/>
	<path fill="#F4F4F4" d="M72.977,81l-0.16-0.559h-0.063c-0.127,0.203-0.309,0.36-0.543,0.471s-0.501,0.166-0.801,0.166
		c-0.513,0-0.9-0.137-1.16-0.412s-0.391-0.67-0.391-1.186v-2.848h1.191v2.551c0,0.315,0.056,0.551,0.168,0.709
		s0.291,0.236,0.535,0.236c0.333,0,0.574-0.111,0.723-0.334s0.223-0.592,0.223-1.107v-2.055h1.191V81H72.977z"/>
	<path fill="#F4F4F4" d="M79.051,81h-1.191v-2.551c0-0.315-0.053-0.551-0.158-0.709s-0.271-0.236-0.498-0.236
		c-0.305,0-0.526,0.112-0.664,0.336s-0.207,0.592-0.207,1.105V81h-1.191v-4.367h0.91l0.16,0.559h0.066
		c0.117-0.201,0.287-0.357,0.508-0.471s0.475-0.17,0.762-0.17c0.654,0,1.096,0.213,1.328,0.641h0.105
		c0.117-0.203,0.29-0.361,0.518-0.473s0.485-0.168,0.771-0.168c0.495,0,0.869,0.127,1.123,0.381s0.381,0.661,0.381,1.221V81h-1.195
		v-2.551c0-0.315-0.053-0.551-0.158-0.709s-0.271-0.236-0.498-0.236c-0.292,0-0.51,0.104-0.654,0.313s-0.217,0.539-0.217,0.992V81z"
		/>
	<path fill="#F4F4F4" d="M85.426,76.551c0.516,0,0.919,0.201,1.211,0.604s0.438,0.954,0.438,1.654c0,0.721-0.15,1.28-0.451,1.676
		s-0.71,0.594-1.229,0.594c-0.513,0-0.916-0.186-1.207-0.559h-0.082L83.906,81h-0.91v-6.078h1.191v1.414
		c0,0.18-0.016,0.467-0.047,0.863h0.047C84.466,76.767,84.879,76.551,85.426,76.551z M85.043,77.504
		c-0.294,0-0.509,0.09-0.645,0.271s-0.206,0.48-0.211,0.896v0.129c0,0.469,0.07,0.805,0.209,1.008s0.36,0.305,0.662,0.305
		c0.245,0,0.439-0.113,0.584-0.338s0.217-0.553,0.217-0.982s-0.073-0.752-0.219-0.967S85.295,77.504,85.043,77.504z"/>
	<path fill="#B2B2B2" d="M92.777,75.289L90.648,81h-1.082l2.129-5.711H92.777z"/>
	<path fill="#F4F4F4" d="M99.559,77.07c0,0.615-0.192,1.084-0.576,1.41s-0.93,0.488-1.639,0.488h-0.52V81h-1.211v-5.711h1.824
		c0.693,0,1.219,0.149,1.58,0.447S99.559,76.479,99.559,77.07z M96.824,77.977h0.398c0.373,0,0.651-0.074,0.836-0.221
		s0.277-0.361,0.277-0.643c0-0.284-0.078-0.494-0.232-0.629s-0.398-0.203-0.729-0.203h-0.551V77.977z"/>
	<path fill="#F4F4F4" d="M103.316,81l-0.23-0.594h-0.031c-0.201,0.252-0.407,0.428-0.619,0.525s-0.489,0.146-0.83,0.146
		c-0.419,0-0.75-0.12-0.99-0.359s-0.361-0.581-0.361-1.023c0-0.463,0.162-0.805,0.486-1.025s0.813-0.342,1.467-0.365l0.758-0.023
		V78.09c0-0.443-0.227-0.664-0.68-0.664c-0.349,0-0.759,0.105-1.23,0.316l-0.395-0.805c0.502-0.263,1.06-0.395,1.672-0.395
		c0.586,0,1.035,0.127,1.348,0.383s0.469,0.643,0.469,1.164V81H103.316z M102.965,78.977l-0.461,0.016
		c-0.346,0.01-0.604,0.073-0.773,0.188s-0.254,0.289-0.254,0.523c0,0.336,0.193,0.504,0.578,0.504c0.276,0,0.497-0.08,0.662-0.238
		s0.248-0.37,0.248-0.633V78.977z"/>
	<path fill="#F4F4F4" d="M107.215,80.129c0.208,0,0.458-0.045,0.75-0.137v0.887c-0.297,0.133-0.662,0.199-1.094,0.199
		c-0.477,0-0.824-0.121-1.041-0.361s-0.326-0.602-0.326-1.084v-2.105h-0.57v-0.504l0.656-0.398l0.344-0.922h0.762v0.93h1.223v0.895
		h-1.223v2.105c0,0.169,0.047,0.294,0.143,0.375S107.059,80.129,107.215,80.129z"/>
	<path fill="#F4F4F4" d="M112.879,81h-1.191v-2.551c0-0.63-0.234-0.945-0.703-0.945c-0.333,0-0.574,0.113-0.723,0.34
		s-0.223,0.594-0.223,1.102V81h-1.191v-6.078h1.191v1.238c0,0.096-0.009,0.323-0.027,0.68l-0.027,0.352h0.063
		c0.266-0.427,0.688-0.641,1.266-0.641c0.513,0,0.902,0.138,1.168,0.414s0.398,0.672,0.398,1.188V81z"/>
</g>
<g>
	<g>
		<path fill-rule="evenodd" clip-rule="evenodd" fill="#F4F4F4" d="M16.943,43l-0.002-0.001l7-6.999l0.684,0.684L18.808,42.5H31v1
			H18.808l5.817,5.817L23.941,50l-7-6.999L16.943,43z"/>
	</g>
</g>
<path opacity="0.5" fill-rule="evenodd" clip-rule="evenodd" d="M379,137h-24c-1.65,0-3-1.35-3-3v-24c0-1.65,1.35-3,3-3h24
	c1.65,0,3,1.35,3,3v24C382,135.65,380.65,137,379,137z"/>
<path opacity="0.5" fill-rule="evenodd" clip-rule="evenodd" d="M379,63h-84c-1.65,0-3-1.35-3-3V36c0-1.65,1.35-3,3-3h84
	c1.65,0,3,1.35,3,3v24C382,61.65,380.65,63,379,63z"/>
<polygon fill-rule="evenodd" clip-rule="evenodd" fill="#FEFEFE" points="374,122 364,128 364,116 "/>
<path fill="#CCCCCC" d="M306,41c-3.866,0-7,3.135-7,7s3.134,7,7,7c3.865,0,7-3.135,7-7S309.865,41,306,41 M308.5,51v1h-5v-1h1.5v-3
	h-1v-1h3v4H308.5z M307.5,44.5c0,0.829-0.671,1.5-1.5,1.5l0,0c-0.829,0-1.5-0.671-1.5-1.5l0,0c0-0.829,0.671-1.5,1.5-1.5l0,0
	C306.828,43,307.5,43.671,307.5,44.5L307.5,44.5z"/>
<path fill-rule="evenodd" clip-rule="evenodd" fill="#CCCCCC" d="M340.742,49.846c-1.054-0.607-2.364-0.367-3.14,0.51l-2.711-1.564
	c0.083-0.251,0.139-0.513,0.139-0.791s-0.056-0.541-0.139-0.791l2.711-1.565c0.775,0.877,2.086,1.118,3.14,0.511
	c1.202-0.694,1.615-2.233,0.92-3.436c-0.694-1.202-2.232-1.615-3.436-0.921c-1.054,0.608-1.5,1.864-1.129,2.974l-2.71,1.565
	c-0.461-0.518-1.125-0.851-1.873-0.851c-1.389,0-2.515,1.126-2.515,2.515s1.126,2.515,2.515,2.515c0.749,0,1.413-0.334,1.874-0.852
	l2.71,1.565c-0.371,1.109,0.075,2.366,1.129,2.975c1.203,0.694,2.741,0.281,3.436-0.921
	C342.357,52.079,341.944,50.54,340.742,49.846z"/>
<path fill="#CCCCCC" d="M374,48v4l-8,3l-8-3v-4l4.375-1.625L363.5,47.5l-4.094,1.5L366,51.469L372.594,49l-4.094-1.5l1.125-1.125
	L374,48z M362,44h3v-4h2v4h3l-4,4L362,44z"/>
<g>
	<circle fill-rule="evenodd" clip-rule="evenodd" fill="#E00000" cx="169" cy="12" r="9"/>
	<g>
		<path fill="#FEFEFE" d="M170.57,16.503h-1.811v-4.957l0.018-0.814l0.029-0.891c-0.301,0.301-0.51,0.498-0.627,0.592l-0.984,0.791
			l-0.873-1.09l2.76-2.197h1.488V16.503z"/>
	</g>
</g>
<g>
	<circle fill-rule="evenodd" clip-rule="evenodd" fill="#E00000" cx="331.513" cy="12" r="9"/>
	<g>
		<path fill="#FEFEFE" d="M334.595,16.503h-5.988v-1.26l2.15-2.174c0.637-0.652,1.053-1.104,1.248-1.356s0.336-0.485,0.422-0.7
			s0.129-0.438,0.129-0.668c0-0.344-0.095-0.6-0.284-0.768s-0.442-0.252-0.759-0.252c-0.332,0-0.654,0.076-0.967,0.229
			s-0.639,0.369-0.979,0.65l-0.984-1.166c0.422-0.359,0.771-0.613,1.049-0.762s0.58-0.263,0.908-0.343s0.695-0.12,1.102-0.12
			c0.535,0,1.008,0.098,1.418,0.293s0.729,0.469,0.955,0.82s0.34,0.754,0.34,1.207c0,0.395-0.069,0.765-0.208,1.11
			s-0.354,0.7-0.645,1.063s-0.804,0.881-1.538,1.553l-1.102,1.037v0.082h3.732V16.503z"/>
	</g>
</g>
<g>
	<circle fill-rule="evenodd" clip-rule="evenodd" fill="#E00000" cx="389" cy="12" r="9"/>
	<g>
		<path fill="#FEFEFE" d="M391.748,9.853c0,0.535-0.162,0.99-0.486,1.365s-0.779,0.633-1.365,0.773v0.035
			c0.691,0.086,1.215,0.296,1.57,0.63S392,13.441,392,14.007c0,0.824-0.299,1.466-0.896,1.925s-1.451,0.688-2.561,0.688
			c-0.93,0-1.754-0.154-2.473-0.463v-1.541c0.332,0.168,0.697,0.305,1.096,0.41s0.793,0.158,1.184,0.158
			c0.598,0,1.039-0.102,1.324-0.305s0.428-0.529,0.428-0.979c0-0.402-0.164-0.688-0.492-0.855s-0.852-0.252-1.57-0.252h-0.65v-1.389
			h0.662c0.664,0,1.149-0.087,1.456-0.261s0.46-0.472,0.46-0.894c0-0.648-0.406-0.973-1.219-0.973c-0.281,0-0.567,0.047-0.858,0.141
			s-0.614,0.256-0.97,0.486l-0.838-1.248c0.781-0.563,1.713-0.844,2.795-0.844c0.887,0,1.587,0.18,2.101,0.539
			S391.748,9.212,391.748,9.853z"/>
	</g>
</g>
<g>
	<circle fill-rule="evenodd" clip-rule="evenodd" fill="#E00000" cx="12" cy="62" r="9"/>
	<g>
		<path fill="#FEFEFE" d="M14.813,64.728h-1.031v1.775h-1.77v-1.775H8.355v-1.26l3.756-5.531h1.67v5.385h1.031V64.728z
			 M12.012,63.322v-1.453c0-0.242,0.01-0.594,0.029-1.055s0.035-0.729,0.047-0.803h-0.047c-0.145,0.32-0.318,0.633-0.521,0.938
			l-1.57,2.373H12.012z"/>
	</g>
</g>
<g>
	<circle fill-rule="evenodd" clip-rule="evenodd" fill="#E00000" cx="306" cy="77" r="9"/>
	<g>
		<path fill="#FEFEFE" d="M306.211,76.031c0.828,0,1.487,0.232,1.978,0.697s0.735,1.102,0.735,1.91c0,0.957-0.295,1.693-0.885,2.209
			s-1.434,0.773-2.531,0.773c-0.953,0-1.723-0.154-2.309-0.463v-1.564c0.309,0.164,0.668,0.298,1.078,0.401s0.799,0.155,1.166,0.155
			c1.105,0,1.658-0.453,1.658-1.359c0-0.863-0.572-1.295-1.717-1.295c-0.207,0-0.436,0.021-0.686,0.062s-0.453,0.085-0.609,0.132
			l-0.721-0.387l0.322-4.365h4.646v1.535h-3.059l-0.158,1.682l0.205-0.041C305.564,76.058,305.859,76.031,306.211,76.031z"/>
	</g>
</g>
<g>
	<circle fill-rule="evenodd" clip-rule="evenodd" fill="#E00000" cx="336" cy="77" r="9"/>
	<g>
		<path fill="#FEFEFE" d="M333.035,77.865c0-1.695,0.358-2.957,1.075-3.785s1.79-1.242,3.22-1.242c0.488,0,0.871,0.029,1.148,0.088
			v1.447c-0.348-0.078-0.691-0.117-1.031-0.117c-0.621,0-1.128,0.094-1.521,0.281s-0.687,0.465-0.882,0.832
			s-0.311,0.889-0.346,1.564h0.076c0.387-0.664,1.006-0.996,1.857-0.996c0.766,0,1.365,0.24,1.799,0.721s0.65,1.145,0.65,1.992
			c0,0.914-0.258,1.638-0.773,2.171s-1.23,0.8-2.145,0.8c-0.633,0-1.185-0.146-1.655-0.439s-0.834-0.721-1.09-1.283
			S333.035,78.658,333.035,77.865z M336.129,80.173c0.387,0,0.684-0.13,0.891-0.39s0.311-0.63,0.311-1.11
			c0-0.418-0.097-0.747-0.29-0.987s-0.485-0.36-0.876-0.36c-0.367,0-0.681,0.119-0.94,0.357s-0.39,0.516-0.39,0.832
			c0,0.465,0.122,0.857,0.366,1.178S335.754,80.173,336.129,80.173z"/>
	</g>
</g>
<g>
	<circle fill-rule="evenodd" clip-rule="evenodd" fill="#E00000" cx="366" cy="77" r="9"/>
	<g>
		<path fill="#FEFEFE" d="M363.943,81.503l3.217-7.031h-4.225v-1.523h6.146v1.137l-3.24,7.418H363.943z"/>
	</g>
</g>
<circle fill-rule="evenodd" clip-rule="evenodd" fill="#E00000" cx="338.296" cy="122.29" r="9"/>
<g>
	<path fill="#FEFEFE" d="M338.342,118.116c0.82,0,1.481,0.187,1.983,0.56s0.753,0.876,0.753,1.509c0,0.438-0.121,0.827-0.363,1.169
		s-0.633,0.647-1.172,0.917c0.641,0.344,1.101,0.702,1.38,1.075s0.419,0.782,0.419,1.228c0,0.703-0.275,1.269-0.826,1.696
		s-1.275,0.642-2.174,0.642c-0.938,0-1.674-0.199-2.209-0.598s-0.803-0.963-0.803-1.693c0-0.488,0.13-0.922,0.39-1.301
		s0.677-0.713,1.251-1.002c-0.488-0.309-0.84-0.639-1.055-0.99s-0.322-0.736-0.322-1.154c0-0.613,0.254-1.109,0.762-1.488
		S337.525,118.116,338.342,118.116z M337.006,124.514c0,0.336,0.117,0.598,0.352,0.785s0.555,0.281,0.961,0.281
		c0.449,0,0.785-0.097,1.008-0.29s0.334-0.448,0.334-0.765c0-0.262-0.11-0.507-0.331-0.735s-0.579-0.472-1.075-0.729
		C337.422,123.444,337.006,123.928,337.006,124.514z M338.33,119.44c-0.309,0-0.558,0.079-0.747,0.237s-0.284,0.37-0.284,0.636
		c0,0.234,0.075,0.444,0.226,0.63s0.423,0.376,0.817,0.571c0.383-0.18,0.65-0.363,0.803-0.551s0.229-0.404,0.229-0.65
		c0-0.27-0.098-0.482-0.293-0.639S338.635,119.44,338.33,119.44z"/>
</g>
<path fill="#444444" d="M135,180H10v-26c0-2.2,1.8-4,4-4h117c2.2,0,4,1.8,4,4V180z"/>
<path fill="#444444" d="M262.5,180h-125v-26c0-2.2,1.8-4,4-4h117c2.2,0,4,1.8,4,4V180z"/>
<path fill="#444444" d="M390,180H265v-26c0-2.2,1.8-4,4-4h117c2.2,0,4,1.8,4,4V180z"/>
<path fill="#CCCCCC" d="M370,5c-3.866,0-7,3.135-7,7s3.134,7,7,7c3.865,0,7-3.135,7-7S373.866,5,370,5 M374.208,12.083l-6.062,3.5
	v-7L374.208,12.083z"/>
<path fill="#CCCCCC" d="M24,9.208L17.3,4l-6.7,5.208v2.12l6.7-5.182l6.7,5.182V9.208z M17.3,7.876l-5.024,3.769v5.025h4.032v-4.008
	h1.984v4.008h4.033v-5.025L17.3,7.876z"/>
</svg>
